<?xml version="1.0" encoding="UTF-8"?>
<svg xmlns="http://www.w3.org/2000/svg" xmlns:xlink="http://www.w3.org/1999/xlink" width="40px" height="40px" viewBox="0 0 40 40" version="1.1">
<g id="surface1">
<path style=" stroke:none;fill-rule:nonzero;fill:rgb(0%,0%,0%);fill-opacity:1;" d="M 12.804688 29.261719 C 12.6875 29.335938 12.589844 29.402344 12.484375 29.460938 C 11.820312 29.832031 11.128906 30.140625 10.378906 30.289062 C 9.894531 30.390625 9.398438 30.410156 8.917969 30.246094 C 8.207031 30.007812 7.773438 29.507812 7.667969 28.765625 C 7.507812 27.589844 7.816406 26.519531 8.539062 25.585938 C 8.980469 25.015625 9.558594 24.664062 10.308594 24.613281 C 11.046875 24.558594 11.679688 24.734375 12.15625 25.332031 C 12.277344 25.484375 12.378906 25.65625 12.4375 25.84375 C 12.457031 25.90625 12.523438 25.976562 12.414062 26.027344 C 12.253906 26.105469 12.167969 26.09375 12.105469 25.976562 C 12.027344 25.820312 11.933594 25.675781 11.816406 25.542969 C 11.265625 24.929688 10.355469 24.863281 9.617188 25.285156 C 9.046875 25.613281 8.707031 26.121094 8.453125 26.707031 C 8.234375 27.207031 8.121094 27.734375 8.125 28.273438 C 8.128906 28.691406 8.164062 29.125 8.472656 29.464844 C 8.839844 29.871094 9.320312 29.953125 9.824219 29.890625 C 10.5 29.8125 11.117188 29.542969 11.730469 29.261719 C 12.0625 29.105469 12.375 28.917969 12.691406 28.734375 C 12.761719 28.691406 12.789062 28.648438 12.792969 28.5625 C 12.816406 27.839844 12.933594 27.125 13.015625 26.410156 C 13.023438 26.339844 13.054688 26.304688 13.125 26.304688 C 13.136719 26.308594 13.148438 26.304688 13.160156 26.304688 C 13.703125 26.285156 13.722656 26.308594 13.644531 26.878906 C 13.578125 27.378906 13.511719 27.878906 13.484375 28.386719 C 13.433594 29.382812 13.535156 30.355469 13.839844 31.308594 C 14.074219 32.042969 14.484375 32.671875 15.003906 33.234375 C 15.515625 33.785156 16.105469 34.25 16.769531 34.613281 C 17.882812 35.222656 19.082031 35.570312 20.332031 35.765625 C 21.148438 35.894531 21.96875 35.96875 22.796875 35.945312 C 23.292969 35.929688 23.789062 35.875 24.273438 35.78125 C 25.222656 35.605469 26.15625 35.375 27.023438 34.933594 C 28.214844 34.324219 29.191406 33.464844 29.972656 32.378906 C 30.5625 31.554688 30.992188 30.652344 31.308594 29.691406 C 31.574219 28.875 31.773438 28.039062 31.890625 27.183594 C 32.007812 26.34375 32.019531 25.5 32.011719 24.652344 C 32.011719 24.570312 32.003906 24.484375 31.996094 24.398438 C 31.988281 24.316406 32.019531 24.28125 32.109375 24.265625 C 32.3125 24.234375 32.375 24.226562 32.402344 24.472656 C 32.441406 24.898438 32.472656 25.324219 32.503906 25.75 C 32.53125 26.171875 32.503906 26.585938 32.480469 27.003906 C 32.4375 27.730469 32.292969 28.441406 32.121094 29.152344 C 31.851562 30.246094 31.46875 31.289062 30.871094 32.253906 C 29.945312 33.757812 28.691406 34.90625 27.097656 35.667969 C 26.496094 35.957031 25.851562 36.117188 25.21875 36.296875 C 24.535156 36.488281 23.832031 36.570312 23.125 36.621094 C 22.515625 36.664062 21.90625 36.660156 21.296875 36.617188 C 19.824219 36.515625 18.402344 36.199219 17.054688 35.570312 C 16.230469 35.183594 15.496094 34.671875 14.84375 34.046875 C 13.949219 33.1875 13.332031 32.164062 13.042969 30.953125 C 12.910156 30.402344 12.835938 29.847656 12.804688 29.261719 Z M 12.804688 29.261719 "/>
<path style=" stroke:none;fill-rule:nonzero;fill:rgb(0%,0%,0%);fill-opacity:1;" d="M 26.449219 27 C 25.800781 27 25.152344 27.019531 24.507812 26.996094 C 24.0625 26.976562 23.617188 26.988281 23.171875 26.96875 C 22.433594 26.933594 21.695312 26.90625 20.953125 26.859375 C 20.285156 26.816406 19.617188 26.761719 18.949219 26.6875 C 17.691406 26.546875 16.441406 26.367188 15.230469 25.992188 C 14.820312 25.863281 14.464844 25.628906 14.109375 25.40625 C 13.855469 25.246094 13.867188 24.714844 14.101562 24.519531 C 14.425781 24.25 14.816406 24.109375 15.210938 23.988281 C 16.300781 23.65625 17.425781 23.476562 18.554688 23.347656 C 19.289062 23.261719 20.027344 23.203125 20.765625 23.152344 C 21.789062 23.082031 22.8125 23.011719 23.839844 23.011719 C 24.347656 23.011719 24.859375 22.972656 25.367188 22.980469 C 26.230469 22.996094 27.09375 23.015625 27.953125 23.066406 C 29.082031 23.132812 30.207031 23.242188 31.3125 23.507812 C 31.367188 23.519531 31.480469 23.484375 31.460938 23.613281 C 31.4375 23.757812 31.316406 23.882812 31.21875 23.871094 C 30.667969 23.800781 30.117188 23.757812 29.5625 23.722656 C 28.820312 23.683594 28.078125 23.71875 27.335938 23.691406 C 26.984375 23.675781 26.636719 23.660156 26.285156 23.671875 C 25.742188 23.695312 25.195312 23.6875 24.648438 23.707031 C 23.945312 23.730469 23.242188 23.753906 22.539062 23.796875 C 21.625 23.851562 20.714844 23.910156 19.804688 23.988281 C 18.414062 24.109375 17.027344 24.253906 15.660156 24.554688 C 15.304688 24.632812 14.953125 24.734375 14.613281 24.871094 C 14.515625 24.90625 14.351562 24.921875 14.363281 25.019531 C 14.378906 25.140625 14.503906 25.242188 14.636719 25.285156 C 14.976562 25.382812 15.316406 25.480469 15.664062 25.546875 C 16.496094 25.703125 17.328125 25.828125 18.171875 25.902344 C 18.699219 25.949219 19.226562 25.988281 19.753906 26.023438 C 20.476562 26.074219 21.199219 26.105469 21.925781 26.128906 C 22.4375 26.148438 22.953125 26.152344 23.46875 26.164062 C 25.007812 26.203125 26.546875 26.175781 28.085938 26.175781 C 28.859375 26.175781 29.632812 26.144531 30.40625 26.109375 C 30.625 26.097656 30.71875 26.1875 30.792969 26.367188 C 30.914062 26.667969 30.902344 26.691406 30.582031 26.722656 C 29.839844 26.789062 29.097656 26.863281 28.351562 26.894531 C 27.71875 26.921875 27.085938 26.972656 26.449219 27 Z M 26.449219 27 "/>
<path style=" stroke:none;fill-rule:nonzero;fill:rgb(0%,0%,0%);fill-opacity:1;" d="M 25.609375 0.546875 C 24.457031 0.597656 23.359375 0.851562 22.371094 1.472656 C 22.015625 1.695312 21.71875 1.972656 21.53125 2.363281 C 21.390625 2.660156 21.480469 3.003906 21.695312 3.238281 C 22.046875 3.621094 22.503906 3.835938 22.960938 4.046875 C 23.792969 4.4375 24.667969 4.75 25.449219 5.238281 C 25.925781 5.539062 26.367188 5.878906 26.707031 6.339844 C 27.054688 6.8125 27.0625 7.300781 26.800781 7.800781 C 26.511719 8.355469 26.039062 8.742188 25.53125 9.082031 C 24.679688 9.652344 23.789062 10.15625 22.878906 10.617188 C 21.988281 11.066406 21.109375 11.527344 20.300781 12.117188 C 20.140625 12.230469 19.992188 12.359375 19.875 12.523438 C 19.675781 12.800781 19.730469 12.980469 20.035156 13.140625 C 20.621094 13.445312 21.257812 13.585938 21.890625 13.734375 C 22.613281 13.90625 23.34375 14.058594 24.050781 14.300781 C 24.496094 14.453125 24.910156 14.652344 25.277344 14.949219 C 25.574219 15.191406 25.695312 15.671875 25.546875 16.085938 C 25.394531 16.515625 25.101562 16.847656 24.808594 17.183594 C 24.386719 17.664062 23.921875 18.109375 23.570312 18.648438 C 23.460938 18.816406 23.378906 18.988281 23.316406 19.171875 C 23.226562 19.433594 23.308594 19.671875 23.527344 19.851562 C 23.863281 20.121094 24.273438 20.214844 24.679688 20.324219 C 24.691406 20.328125 24.710938 20.324219 24.722656 20.332031 C 24.804688 20.375 24.953125 20.335938 24.957031 20.441406 C 24.96875 20.585938 24.867188 20.707031 24.765625 20.808594 C 24.742188 20.828125 24.71875 20.828125 24.691406 20.820312 C 24.210938 20.644531 23.710938 20.511719 23.296875 20.1875 C 22.953125 19.917969 22.757812 19.386719 22.914062 18.933594 C 23.089844 18.429688 23.398438 18.011719 23.742188 17.617188 C 24.152344 17.152344 24.625 16.746094 24.996094 16.246094 C 25.039062 16.1875 25.078125 16.121094 25.121094 16.0625 C 25.320312 15.753906 25.246094 15.503906 24.925781 15.277344 C 24.441406 14.933594 23.875 14.785156 23.3125 14.628906 C 22.460938 14.398438 21.597656 14.214844 20.757812 13.929688 C 20.339844 13.789062 19.96875 13.566406 19.628906 13.296875 C 19.316406 13.054688 19.273438 12.554688 19.519531 12.1875 C 19.761719 11.832031 20.105469 11.578125 20.453125 11.335938 C 21.15625 10.839844 21.917969 10.445312 22.675781 10.046875 C 23.574219 9.578125 24.484375 9.136719 25.339844 8.597656 C 25.671875 8.386719 25.980469 8.144531 26.253906 7.859375 C 26.683594 7.410156 26.675781 6.957031 26.246094 6.507812 C 25.808594 6.050781 25.285156 5.710938 24.722656 5.433594 C 24.0625 5.101562 23.382812 4.796875 22.71875 4.46875 C 22.363281 4.292969 22.011719 4.105469 21.714844 3.839844 C 21.382812 3.539062 21.117188 3.191406 21.054688 2.734375 C 21.015625 2.449219 21.101562 2.175781 21.246094 1.929688 C 21.589844 1.339844 22.125 0.96875 22.730469 0.683594 C 23.265625 0.425781 23.835938 0.253906 24.421875 0.167969 C 25.324219 0.03125 26.226562 0 27.09375 0.363281 C 27.371094 0.480469 27.636719 0.613281 27.839844 0.835938 C 28.285156 1.316406 28.207031 1.898438 27.777344 2.367188 C 27.417969 2.753906 26.949219 2.929688 26.441406 3.011719 C 26.0625 3.074219 25.683594 3.078125 25.308594 2.980469 C 25.121094 2.933594 24.949219 2.851562 24.808594 2.722656 C 24.582031 2.511719 24.597656 2.179688 24.839844 1.945312 C 24.898438 1.886719 24.964844 1.835938 25.035156 1.785156 C 25.191406 1.667969 25.234375 1.679688 25.359375 1.835938 C 25.417969 1.90625 25.410156 1.945312 25.332031 1.996094 C 25.226562 2.058594 25.132812 2.136719 25.058594 2.238281 C 24.941406 2.398438 24.964844 2.492188 25.152344 2.5625 C 25.609375 2.734375 26.070312 2.695312 26.527344 2.578125 C 26.910156 2.480469 27.265625 2.316406 27.539062 2.015625 C 27.648438 1.898438 27.730469 1.757812 27.761719 1.601562 C 27.804688 1.398438 27.714844 1.230469 27.558594 1.097656 C 27.195312 0.785156 26.75 0.671875 26.292969 0.589844 C 26.066406 0.550781 25.839844 0.546875 25.609375 0.546875 Z M 25.609375 0.546875 "/>
<path style=" stroke:none;fill-rule:nonzero;fill:rgb(0%,0%,0%);fill-opacity:1;" d="M 29.632812 38.238281 C 28.832031 37.863281 27.992188 37.773438 27.148438 37.699219 C 26.804688 37.671875 26.464844 37.632812 26.121094 37.609375 C 26.015625 37.605469 26.007812 37.554688 26.019531 37.480469 C 26.042969 37.328125 26.09375 37.183594 26.167969 37.050781 C 26.195312 37 26.234375 36.980469 26.285156 36.988281 C 27.148438 37.066406 28.011719 37.136719 28.847656 37.382812 C 29.203125 37.488281 29.558594 37.601562 29.835938 37.867188 C 30.199219 38.21875 30.113281 38.644531 29.664062 38.882812 C 29.058594 39.210938 28.398438 39.320312 27.738281 39.449219 C 26.847656 39.625 25.945312 39.722656 25.039062 39.804688 C 24.371094 39.867188 23.703125 39.90625 23.03125 39.941406 C 22.113281 39.996094 21.199219 40 20.28125 39.992188 C 19.554688 39.980469 18.828125 39.976562 18.109375 39.890625 C 17.269531 39.792969 16.429688 39.6875 15.628906 39.386719 C 15.277344 39.257812 14.960938 39.078125 14.691406 38.808594 C 14.402344 38.519531 14.304688 38.0625 14.574219 37.625 C 14.917969 37.066406 15.453125 36.753906 16.023438 36.488281 C 16.390625 36.320312 16.777344 36.210938 17.160156 36.082031 C 17.300781 36.035156 17.335938 36.132812 17.378906 36.222656 C 17.484375 36.425781 17.472656 36.457031 17.265625 36.542969 C 16.714844 36.777344 16.15625 36.992188 15.660156 37.335938 C 15.402344 37.515625 15.167969 37.71875 14.992188 37.984375 C 14.871094 38.167969 14.886719 38.347656 15.050781 38.492188 C 15.230469 38.644531 15.445312 38.722656 15.660156 38.789062 C 16.257812 38.96875 16.871094 39.042969 17.488281 39.097656 C 18.367188 39.179688 19.253906 39.21875 20.136719 39.191406 C 20.726562 39.175781 21.3125 39.1875 21.902344 39.164062 C 22.722656 39.125 23.539062 39.085938 24.359375 39.035156 C 25.359375 38.976562 26.363281 38.90625 27.359375 38.777344 C 28.019531 38.691406 28.695312 38.640625 29.328125 38.402344 C 29.433594 38.367188 29.535156 38.324219 29.632812 38.238281 Z M 29.632812 38.238281 "/>
<path style=" stroke:none;fill-rule:nonzero;fill:rgb(0%,0%,0%);fill-opacity:1;" d="M 29.785156 25.046875 C 29.566406 24.960938 29.324219 24.992188 29.09375 24.984375 C 28.429688 24.960938 27.765625 24.953125 27.101562 24.980469 C 26.332031 25.011719 25.5625 24.984375 24.792969 25.007812 C 23.863281 25.039062 22.929688 25.066406 22 25.101562 C 21.496094 25.117188 20.996094 25.144531 20.492188 25.167969 C 20.429688 25.171875 20.367188 25.183594 20.304688 25.191406 C 20.191406 25.207031 20.117188 25.179688 20.082031 25.050781 C 20.023438 24.84375 20.015625 24.847656 20.238281 24.808594 C 21.179688 24.648438 22.128906 24.550781 23.085938 24.492188 C 23.5625 24.464844 24.039062 24.445312 24.515625 24.421875 C 24.980469 24.398438 25.445312 24.410156 25.914062 24.390625 C 26.632812 24.355469 27.355469 24.382812 28.074219 24.410156 C 28.96875 24.441406 29.867188 24.5 30.738281 24.75 C 30.785156 24.761719 30.832031 24.773438 30.875 24.796875 C 30.960938 24.84375 31.085938 24.863281 31.085938 25.003906 C 31.085938 25.160156 30.980469 25.308594 30.835938 25.355469 C 30.566406 25.4375 30.289062 25.472656 30.011719 25.503906 C 29.339844 25.578125 28.664062 25.628906 27.988281 25.675781 C 27.429688 25.71875 26.871094 25.734375 26.3125 25.777344 C 26.21875 25.78125 26.160156 25.757812 26.125 25.667969 C 26.082031 25.542969 26.035156 25.421875 26.035156 25.285156 C 26.035156 25.21875 26.054688 25.195312 26.125 25.191406 C 26.527344 25.171875 26.929688 25.140625 27.328125 25.125 C 28.148438 25.09375 28.972656 25.070312 29.785156 25.046875 Z M 29.785156 25.046875 "/>
</g>
</svg>
