<svg xmlns="http://www.w3.org/2000/svg" xmlns:xlink="http://www.w3.org/1999/xlink" width="500" zoomAndPan="magnify" viewBox="0 0 375 374.999991" height="500" preserveAspectRatio="xMidYMid meet" version="1.0"><defs><clipPath id="9f3cb8ae0f"><path d="M 305 30.9375 L 331 30.9375 L 331 47 L 305 47 Z M 305 30.9375 " clip-rule="nonzero"/></clipPath><clipPath id="c9faa8980b"><path d="M 49 323 L 70 323 L 70 344.4375 L 49 344.4375 Z M 49 323 " clip-rule="nonzero"/></clipPath></defs><path fill="#8c52ff" d="M 151.042969 199.238281 C 147.804688 199.238281 144.769531 197.699219 143.132812 195.226562 C 142.121094 193.707031 141.234375 191.285156 142.011719 187.863281 C 140.78125 187.917969 139.660156 187.96875 138.597656 188.019531 C 134.132812 188.226562 130.792969 188.386719 125.046875 188.300781 C 124.808594 188.296875 124.582031 188.246094 124.363281 188.152344 C 124.144531 188.054688 123.953125 187.921875 123.789062 187.75 C 123.625 187.578125 123.5 187.378906 123.414062 187.15625 C 123.332031 186.933594 123.292969 186.703125 123.300781 186.46875 C 123.410156 183.195312 123.761719 180.269531 124.101562 177.441406 C 124.359375 175.289062 124.605469 173.222656 124.753906 171.023438 C 124.714844 171.023438 124.675781 171.019531 124.632812 171.019531 C 120.113281 170.882812 110.714844 170.601562 110.507812 160.496094 C 110.445312 159 110.675781 157.546875 111.199219 156.140625 C 111.722656 154.734375 112.5 153.484375 113.53125 152.394531 C 116.433594 149.425781 121.0625 148.480469 125.289062 150.019531 C 126.707031 143.378906 126.726562 136.726562 125.347656 130.074219 C 125.273438 129.910156 125.226562 129.734375 125.203125 129.554688 C 125.148438 128.984375 125.316406 128.488281 125.710938 128.070312 C 125.855469 127.917969 126.027344 127.796875 126.21875 127.703125 C 126.40625 127.613281 126.609375 127.554688 126.820312 127.535156 C 127.03125 127.515625 127.238281 127.535156 127.441406 127.589844 C 127.648438 127.644531 127.835938 127.734375 128.007812 127.855469 C 128.839844 127.988281 130.820312 128.144531 132.589844 128.285156 C 136.253906 128.574219 140.808594 128.933594 143.9375 129.609375 C 144.074219 129.636719 144.207031 129.683594 144.335938 129.746094 C 144.460938 129.804688 144.582031 129.882812 144.691406 129.972656 C 144.800781 130.058594 144.894531 130.160156 144.980469 130.273438 C 145.066406 130.386719 145.136719 130.507812 145.191406 130.636719 C 145.25 130.769531 145.289062 130.902344 145.3125 131.042969 C 145.335938 131.179688 145.34375 131.320312 145.335938 131.460938 C 145.324219 131.601562 145.300781 131.742188 145.257812 131.875 C 145.214844 132.011719 145.15625 132.140625 145.082031 132.261719 C 143.777344 134.425781 143.46875 138.671875 145.089844 141.550781 C 146.492188 144.03125 149.03125 145.058594 152.789062 144.519531 C 156.179688 144.039062 156.761719 139.882812 157.171875 134.496094 C 157.257812 133.378906 157.339844 132.332031 157.464844 131.425781 C 157.5 131.199219 157.574219 130.988281 157.691406 130.789062 C 157.804688 130.589844 157.953125 130.421875 158.132812 130.277344 C 158.316406 130.136719 158.515625 130.035156 158.738281 129.972656 C 158.957031 129.90625 159.183594 129.886719 159.410156 129.910156 C 161.984375 130.1875 164.785156 130.371094 167.746094 130.566406 C 171.894531 130.839844 176.1875 131.121094 180.117188 131.6875 C 180.335938 131.71875 180.539062 131.785156 180.730469 131.894531 C 180.921875 132 181.089844 132.136719 181.226562 132.308594 C 181.367188 132.476562 181.472656 132.664062 181.542969 132.871094 C 181.613281 133.082031 181.644531 133.292969 181.636719 133.511719 C 181.554688 135.554688 181.507812 137.609375 181.464844 139.660156 C 181.355469 144.816406 181.238281 150.140625 180.496094 155.347656 C 180.460938 155.589844 180.378906 155.816406 180.253906 156.023438 C 180.125 156.230469 179.960938 156.40625 179.761719 156.546875 C 179.558594 156.6875 179.339844 156.78125 179.101562 156.832031 C 178.863281 156.882812 178.625 156.882812 178.382812 156.832031 C 175.390625 156.210938 171.328125 157.539062 169.644531 159.6875 C 169.273438 160.125 169.023438 160.617188 168.890625 161.171875 C 168.761719 161.726562 168.765625 162.28125 168.902344 162.835938 C 169.820312 166.609375 172.863281 168.597656 178.464844 169.089844 C 178.835938 169.121094 179.164062 169.257812 179.449219 169.496094 C 179.734375 169.738281 179.925781 170.035156 180.023438 170.394531 C 181.511719 175.941406 180.203125 183.871094 179.765625 186.167969 C 179.695312 186.546875 179.519531 186.867188 179.238281 187.128906 C 178.960938 187.394531 178.628906 187.546875 178.25 187.597656 C 173.164062 188.269531 168.058594 188.628906 162.929688 188.679688 C 161.722656 188.679688 160.589844 188.652344 159.535156 188.597656 C 160.140625 192.066406 159.210938 194.382812 158.203125 195.796875 C 156.644531 197.980469 154.035156 199.238281 151.042969 199.238281 Z M 144.480469 184.21875 C 144.625 184.21875 144.769531 184.234375 144.910156 184.273438 C 145.050781 184.308594 145.1875 184.359375 145.316406 184.429688 C 145.445312 184.496094 145.5625 184.582031 145.671875 184.679688 C 145.78125 184.777344 145.875 184.886719 145.957031 185.011719 C 146.035156 185.132812 146.101562 185.261719 146.148438 185.398438 C 146.199219 185.539062 146.230469 185.679688 146.242188 185.824219 C 146.257812 185.972656 146.253906 186.117188 146.230469 186.261719 C 146.207031 186.40625 146.167969 186.542969 146.113281 186.679688 C 144.996094 189.335938 144.984375 191.613281 146.082031 193.261719 C 147.074219 194.757812 148.976562 195.6875 151.042969 195.6875 C 152.875 195.6875 154.433594 194.976562 155.320312 193.730469 C 156.398438 192.21875 156.464844 189.960938 155.519531 187.203125 C 155.472656 187.0625 155.441406 186.917969 155.429688 186.765625 C 155.417969 186.617188 155.425781 186.46875 155.449219 186.324219 C 155.476562 186.175781 155.519531 186.03125 155.582031 185.898438 C 155.640625 185.761719 155.71875 185.632812 155.8125 185.515625 C 155.90625 185.398438 156.011719 185.296875 156.132812 185.207031 C 156.25 185.117188 156.378906 185.042969 156.519531 184.988281 C 156.65625 184.929688 156.800781 184.890625 156.949219 184.871094 C 157.097656 184.847656 157.246094 184.847656 157.394531 184.863281 C 161.851562 185.367188 169.015625 185.125 176.507812 184.238281 C 177.097656 180.597656 177.449219 175.902344 176.851562 172.476562 C 170.503906 171.609375 166.675781 168.652344 165.460938 163.675781 C 165.1875 162.59375 165.175781 161.507812 165.421875 160.417969 C 165.667969 159.328125 166.148438 158.355469 166.859375 157.496094 C 169.027344 154.726562 173.183594 152.945312 177.210938 153.132812 C 177.726562 148.664062 177.828125 144.054688 177.921875 139.582031 C 177.957031 138.046875 177.988281 136.515625 178.039062 134.984375 C 174.667969 134.574219 171.039062 134.332031 167.511719 134.101562 C 165.167969 133.949219 162.929688 133.800781 160.796875 133.609375 C 160.765625 133.980469 160.734375 134.367188 160.707031 134.761719 C 160.332031 139.679688 159.765625 147.113281 153.289062 148.03125 C 148.164062 148.753906 144.113281 147.035156 142.003906 143.289062 C 140.167969 140.03125 140.101562 135.835938 141.058594 132.695312 C 138.371094 132.300781 135.078125 132.039062 132.3125 131.820312 C 131.03125 131.71875 130.03125 131.636719 129.242188 131.566406 C 130.367188 138.777344 130.03125 145.917969 128.226562 152.988281 C 128.15625 153.257812 128.03125 153.496094 127.851562 153.703125 C 127.671875 153.914062 127.453125 154.070312 127.199219 154.179688 C 126.941406 154.285156 126.679688 154.328125 126.402344 154.3125 C 126.125 154.292969 125.871094 154.21875 125.628906 154.078125 C 122.316406 152.171875 118.355469 152.535156 116.0625 154.878906 C 114.699219 156.269531 114.003906 158.1875 114.050781 160.425781 C 114.175781 166.652344 118.964844 167.300781 124.738281 167.472656 C 125.515625 167.496094 126.214844 167.519531 126.785156 167.570312 C 127.011719 167.59375 127.226562 167.65625 127.429688 167.757812 C 127.628906 167.859375 127.804688 167.996094 127.957031 168.167969 C 128.105469 168.339844 128.21875 168.53125 128.292969 168.746094 C 128.367188 168.960938 128.402344 169.179688 128.390625 169.410156 C 128.269531 172.4375 127.9375 175.199219 127.617188 177.863281 C 127.351562 180.074219 127.082031 182.34375 126.929688 184.769531 C 131.523438 184.789062 134.523438 184.65625 138.4375 184.476562 C 140.191406 184.390625 142.109375 184.304688 144.414062 184.21875 Z M 144.480469 184.21875 " fill-opacity="1" fill-rule="nonzero"/><path fill="#8c52ff" d="M 230.785156 190.503906 L 230.714844 190.503906 C 226.554688 190.339844 218.777344 189.953125 213.484375 189.203125 C 213.246094 189.171875 213.023438 189.09375 212.816406 188.96875 C 212.609375 188.84375 212.433594 188.683594 212.292969 188.488281 C 212.152344 188.292969 212.054688 188.074219 212.003906 187.839844 C 211.949219 187.605469 211.945312 187.367188 211.988281 187.128906 C 212.546875 184.054688 211.703125 181.53125 209.605469 180.03125 C 209.082031 179.664062 208.519531 179.371094 207.914062 179.160156 C 207.3125 178.945312 206.691406 178.816406 206.050781 178.773438 C 205.414062 178.730469 204.78125 178.773438 204.152344 178.90625 C 203.527344 179.035156 202.929688 179.246094 202.359375 179.542969 C 200.921875 180.347656 199.257812 182.085938 199.511719 185.808594 C 199.546875 186.335938 199.382812 186.785156 199.019531 187.167969 C 198.648438 187.539062 198.203125 187.714844 197.679688 187.703125 C 193.902344 187.5625 181.867188 187.460938 178.875 187.503906 C 178.644531 187.492188 178.421875 187.445312 178.210938 187.351562 C 177.996094 187.261719 177.808594 187.136719 177.640625 186.972656 C 177.476562 186.8125 177.34375 186.628906 177.246094 186.417969 C 177.152344 186.207031 177.09375 185.988281 177.078125 185.753906 C 177.074219 185.519531 177.117188 185.292969 177.203125 185.074219 C 177.289062 184.855469 177.414062 184.664062 177.578125 184.496094 C 177.742188 184.324219 177.933594 184.195312 178.148438 184.101562 C 178.363281 184.007812 178.589844 183.960938 178.824219 183.957031 C 181.464844 183.921875 191.050781 183.988281 195.984375 184.105469 C 196.253906 180.710938 197.890625 177.976562 200.636719 176.441406 C 201.496094 175.984375 202.40625 175.648438 203.359375 175.441406 C 204.3125 175.234375 205.277344 175.164062 206.253906 175.222656 C 207.226562 175.285156 208.175781 175.480469 209.097656 175.808594 C 210.015625 176.132812 210.875 176.578125 211.671875 177.144531 C 214.4375 179.128906 215.851562 182.261719 215.6875 185.910156 C 219.980469 186.410156 225.363281 186.71875 229.121094 186.882812 C 229.203125 185.625 229.308594 184.363281 229.414062 183.105469 C 229.664062 180.089844 229.921875 176.988281 229.875 173.902344 C 225.410156 172.734375 220.375 171.015625 220.875 164.488281 C 220.945312 163.105469 221.289062 161.789062 221.902344 160.546875 C 222.515625 159.300781 223.347656 158.230469 224.40625 157.332031 C 226.558594 155.523438 229.578125 154.535156 232.871094 154.519531 C 233.242188 150.5 233.601562 142.703125 233.753906 139.277344 C 228.707031 138.835938 221.523438 138.421875 219.511719 138.875 C 219.179688 138.949219 218.855469 138.933594 218.535156 138.820312 C 218.214844 138.707031 217.945312 138.519531 217.734375 138.253906 C 217.523438 137.988281 217.398438 137.6875 217.359375 137.351562 C 217.320312 137.011719 217.371094 136.691406 217.519531 136.382812 C 218.890625 133.492188 219.839844 129.527344 216.578125 127.066406 C 213.375 124.660156 207.484375 124.742188 204.679688 127.230469 C 202.910156 128.800781 202.847656 131.042969 204.496094 133.894531 C 204.660156 134.175781 204.738281 134.480469 204.734375 134.804688 C 204.730469 135.128906 204.644531 135.433594 204.472656 135.710938 C 204.304688 135.988281 204.074219 136.203125 203.785156 136.351562 C 203.5 136.503906 203.191406 136.570312 202.867188 136.554688 C 198.433594 136.3125 179.445312 135.679688 179.253906 135.671875 C 179.023438 135.664062 178.800781 135.613281 178.589844 135.515625 C 178.378906 135.421875 178.191406 135.289062 178.035156 135.121094 C 177.875 134.953125 177.753906 134.761719 177.667969 134.542969 C 177.582031 134.328125 177.542969 134.101562 177.546875 133.871094 C 177.550781 133.640625 177.597656 133.417969 177.691406 133.203125 C 177.78125 132.988281 177.910156 132.800781 178.074219 132.636719 C 178.238281 132.476562 178.429688 132.351562 178.644531 132.261719 C 178.859375 132.171875 179.082031 132.128906 179.3125 132.128906 L 179.371094 132.128906 C 180.035156 132.148438 193.417969 132.59375 200.183594 132.878906 C 198.808594 128.402344 201.109375 125.65625 202.328125 124.578125 C 206.371094 120.988281 214.179688 120.824219 218.707031 124.230469 C 220.363281 125.476562 223.628906 128.851562 221.785156 135.140625 C 226.738281 135.042969 234.671875 135.792969 235.765625 135.898438 C 235.992188 135.921875 236.207031 135.984375 236.40625 136.089844 C 236.605469 136.191406 236.78125 136.328125 236.929688 136.5 C 237.078125 136.671875 237.191406 136.863281 237.265625 137.078125 C 237.339844 137.289062 237.375 137.511719 237.363281 137.734375 C 237.339844 138.34375 236.757812 152.640625 236.203125 156.617188 C 236.167969 156.84375 236.09375 157.054688 235.976562 157.25 C 235.863281 157.449219 235.714844 157.617188 235.535156 157.757812 C 235.359375 157.898438 235.160156 158.003906 234.941406 158.066406 C 234.722656 158.132812 234.5 158.15625 234.273438 158.136719 C 231.296875 157.832031 228.460938 158.554688 226.679688 160.050781 C 225.988281 160.640625 225.445312 161.347656 225.050781 162.164062 C 224.65625 162.984375 224.441406 163.847656 224.40625 164.757812 C 224.128906 168.386719 226.402344 169.355469 231.660156 170.699219 L 232.039062 170.796875 C 232.417969 170.894531 232.730469 171.09375 232.976562 171.394531 C 233.222656 171.695312 233.355469 172.042969 233.371094 172.433594 C 233.542969 176.175781 233.238281 179.847656 232.941406 183.398438 C 232.792969 185.199219 232.644531 187.003906 232.554688 188.816406 C 232.546875 189.042969 232.492188 189.261719 232.398438 189.46875 C 232.304688 189.675781 232.171875 189.855469 232.007812 190.015625 C 231.84375 190.171875 231.65625 190.292969 231.445312 190.375 C 231.234375 190.460938 231.015625 190.503906 230.785156 190.503906 Z M 230.785156 190.503906 " fill-opacity="1" fill-rule="nonzero"/><path fill="#8c52ff" d="M 220.894531 239.878906 C 217.273438 239.851562 213.667969 239.582031 210.078125 239.074219 C 209.847656 239.042969 209.628906 238.96875 209.425781 238.851562 C 209.222656 238.734375 209.046875 238.582031 208.90625 238.394531 C 208.761719 238.207031 208.660156 238 208.601562 237.773438 C 208.542969 237.546875 208.527344 237.316406 208.558594 237.082031 C 208.589844 236.847656 208.664062 236.628906 208.78125 236.425781 C 208.898438 236.222656 209.050781 236.050781 209.238281 235.90625 C 209.425781 235.765625 209.632812 235.664062 209.859375 235.601562 C 210.085938 235.542969 210.316406 235.527344 210.550781 235.558594 C 217.894531 236.539062 222.511719 236.425781 225.964844 236.078125 C 226.246094 231.808594 226.445312 221.664062 226.109375 219.84375 C 226.046875 219.527344 226.074219 219.214844 226.183594 218.910156 C 226.296875 218.605469 226.476562 218.351562 226.726562 218.148438 C 226.976562 217.941406 227.261719 217.8125 227.578125 217.765625 C 227.898438 217.714844 228.210938 217.753906 228.507812 217.871094 C 232.726562 219.570312 236.113281 219.246094 238.050781 216.976562 C 239.777344 214.953125 239.976562 211.703125 238.515625 209.261719 C 236.832031 206.441406 233.375 205.371094 228.996094 206.320312 C 228.851562 206.351562 228.703125 206.363281 228.554688 206.359375 C 228.40625 206.351562 228.261719 206.328125 228.121094 206.289062 C 227.976562 206.246094 227.84375 206.1875 227.714844 206.109375 C 227.589844 206.035156 227.472656 205.945312 227.367188 205.839844 C 227.261719 205.734375 227.171875 205.617188 227.097656 205.488281 C 227.019531 205.363281 226.960938 205.226562 226.921875 205.085938 C 226.878906 204.941406 226.855469 204.796875 226.851562 204.648438 C 226.84375 204.5 226.859375 204.351562 226.890625 204.207031 C 227.289062 202.371094 227.554688 199.34375 227.8125 196.414062 C 228.097656 193.132812 228.367188 190.035156 228.84375 188.40625 C 228.914062 188.179688 229.019531 187.976562 229.167969 187.792969 C 229.316406 187.609375 229.492188 187.464844 229.699219 187.351562 C 229.90625 187.238281 230.125 187.171875 230.359375 187.144531 C 230.589844 187.121094 230.820312 187.140625 231.046875 187.207031 C 231.269531 187.273438 231.472656 187.382812 231.65625 187.527344 C 231.839844 187.675781 231.988281 187.851562 232.097656 188.058594 C 232.210938 188.265625 232.28125 188.484375 232.304688 188.71875 C 232.332031 188.953125 232.3125 189.183594 232.246094 189.40625 C 231.867188 190.695312 231.597656 193.757812 231.339844 196.722656 C 231.167969 198.710938 230.988281 200.742188 230.761719 202.484375 C 235.511719 202.125 239.445312 203.902344 241.558594 207.441406 C 243.808594 211.210938 243.476562 216.082031 240.742188 219.28125 C 239.507812 220.738281 236.136719 223.632812 229.792969 222.023438 C 229.929688 226.980469 229.605469 235.9375 229.371094 237.890625 C 229.320312 238.296875 229.152344 238.640625 228.863281 238.929688 C 228.578125 239.21875 228.234375 239.386719 227.828125 239.4375 C 225.527344 239.734375 223.214844 239.878906 220.894531 239.878906 Z M 220.894531 239.878906 " fill-opacity="1" fill-rule="nonzero"/><path fill="#8c52ff" d="M 194.101562 237.890625 C 194.035156 237.890625 193.96875 237.886719 193.902344 237.878906 C 183.648438 236.726562 175.234375 235.5 170.816406 234.515625 C 170.589844 234.460938 170.378906 234.367188 170.1875 234.230469 C 170 234.097656 169.839844 233.929688 169.71875 233.730469 C 169.59375 233.53125 169.511719 233.320312 169.472656 233.089844 C 169.429688 232.859375 169.4375 232.628906 169.488281 232.398438 C 169.539062 232.171875 169.632812 231.960938 169.765625 231.769531 C 169.898438 231.578125 170.066406 231.417969 170.261719 231.292969 C 170.457031 231.167969 170.671875 231.082031 170.902344 231.039062 C 171.132812 231 171.359375 231.003906 171.589844 231.050781 C 175.886719 232.015625 184.164062 233.21875 194.296875 234.351562 C 194.519531 234.375 194.734375 234.441406 194.933594 234.550781 C 195.132812 234.65625 195.304688 234.796875 195.453125 234.96875 C 195.597656 235.140625 195.707031 235.335938 195.78125 235.550781 C 195.851562 235.765625 195.882812 235.988281 195.871094 236.214844 C 195.855469 236.441406 195.804688 236.65625 195.707031 236.863281 C 195.613281 237.066406 195.484375 237.25 195.320312 237.40625 C 195.15625 237.558594 194.96875 237.679688 194.757812 237.765625 C 194.546875 237.847656 194.328125 237.890625 194.101562 237.890625 Z M 194.101562 237.890625 " fill-opacity="1" fill-rule="nonzero"/><path fill="#8c52ff" d="M 151.59375 246.863281 C 146.855469 246.863281 141.917969 244.363281 141.257812 239.277344 C 141.074219 237.851562 141.4375 236.394531 141.757812 235.109375 C 142.121094 233.660156 142.265625 232.855469 142.070312 232.554688 C 141.328125 232.507812 139.503906 232.628906 138.574219 232.6875 C 137.773438 232.738281 137.082031 232.792969 136.765625 232.777344 L 134.964844 232.777344 C 130.769531 232.765625 126.019531 232.785156 121.902344 231.171875 C 121.566406 231.039062 121.292969 230.824219 121.089844 230.523438 C 120.882812 230.226562 120.78125 229.894531 120.777344 229.535156 C 120.675781 215.675781 122.917969 190.09375 123.367188 185.109375 C 123.386719 184.875 123.449219 184.652344 123.558594 184.441406 C 123.667969 184.230469 123.8125 184.050781 123.992188 183.902344 C 124.171875 183.75 124.375 183.640625 124.601562 183.570312 C 124.828125 183.503906 125.058594 183.480469 125.292969 183.503906 C 125.523438 183.527344 125.746094 183.589844 125.953125 183.699219 C 126.160156 183.808594 126.339844 183.953125 126.492188 184.132812 C 126.640625 184.316406 126.75 184.519531 126.820312 184.742188 C 126.890625 184.964844 126.914062 185.195312 126.894531 185.429688 C 125.707031 198.605469 124.347656 217.390625 124.316406 228.253906 C 127.566406 229.238281 131.339844 229.21875 134.957031 229.230469 L 136.792969 229.234375 C 137.066406 229.214844 137.664062 229.199219 138.347656 229.152344 C 141.769531 228.933594 142.882812 228.933594 143.640625 229.339844 C 146.464844 230.859375 145.699219 233.9375 145.195312 235.972656 C 144.9375 237 144.671875 238.066406 144.769531 238.828125 C 145.253906 242.5625 149.789062 243.550781 152.523438 243.277344 C 157.53125 242.792969 158.019531 239.625 158.226562 234.453125 C 158.261719 233.546875 158.296875 232.675781 158.382812 231.882812 C 158.421875 231.515625 158.5625 231.195312 158.800781 230.914062 C 159.042969 230.632812 159.339844 230.449219 159.699219 230.355469 C 162.644531 229.585938 165.546875 230.128906 168.355469 230.652344 C 169.324219 230.835938 170.257812 231.007812 171.167969 231.128906 C 171.53125 228.777344 171.921875 226.449219 172.320312 224.117188 C 172.847656 220.96875 173.378906 217.820312 173.832031 214.640625 C 173.875 214.324219 173.996094 214.039062 174.195312 213.789062 C 174.390625 213.539062 174.640625 213.355469 174.9375 213.238281 C 175.234375 213.121094 175.539062 213.085938 175.855469 213.136719 C 176.171875 213.183594 176.453125 213.308594 176.699219 213.511719 C 178.28125 214.792969 181.773438 215.839844 184.421875 215.375 C 188.546875 214.644531 189.226562 211.546875 189.328125 210.25 C 189.746094 204.96875 186.824219 203.324219 184.296875 202.875 C 182.851562 202.617188 181.386719 202.859375 180.210938 203.058594 C 178.863281 203.285156 177.699219 203.480469 176.777344 202.71875 C 176.257812 202.285156 175.996094 201.730469 175.992188 201.050781 C 175.886719 196.761719 176.261719 187.765625 176.480469 185.335938 C 176.5 185.101562 176.5625 184.878906 176.671875 184.667969 C 176.777344 184.460938 176.921875 184.277344 177.105469 184.128906 C 177.285156 183.976562 177.488281 183.867188 177.714844 183.796875 C 177.9375 183.730469 178.167969 183.707031 178.402344 183.730469 C 178.636719 183.75 178.855469 183.816406 179.066406 183.925781 C 179.273438 184.035156 179.453125 184.179688 179.601562 184.359375 C 179.753906 184.542969 179.863281 184.742188 179.933594 184.96875 C 180 185.191406 180.027344 185.421875 180.003906 185.65625 C 179.820312 187.722656 179.503906 195.121094 179.511719 199.578125 C 179.554688 199.570312 179.589844 199.566406 179.625 199.558594 C 180.992188 199.332031 182.867188 199.011719 184.917969 199.382812 C 190.363281 200.355469 193.328125 204.519531 192.859375 210.527344 C 192.515625 214.878906 189.519531 218.074219 185.035156 218.871094 C 182.277344 219.351562 179.261719 218.75 176.949219 217.734375 C 176.589844 220.066406 176.199219 222.390625 175.808594 224.714844 C 175.328125 227.5625 174.84375 230.414062 174.421875 233.296875 C 174.382812 233.511719 174.308594 233.710938 174.203125 233.898438 C 174.09375 234.085938 173.953125 234.25 173.789062 234.386719 C 173.621094 234.527344 173.4375 234.632812 173.230469 234.707031 C 173.027344 234.777344 172.816406 234.8125 172.601562 234.8125 C 170.953125 234.707031 169.320312 234.484375 167.703125 234.140625 C 165.628906 233.757812 163.652344 233.390625 161.804688 233.574219 C 161.789062 233.90625 161.777344 234.25 161.761719 234.59375 C 161.582031 239.136719 161.304688 246 152.855469 246.808594 C 152.441406 246.84375 152.019531 246.863281 151.59375 246.863281 Z M 151.59375 246.863281 " fill-opacity="1" fill-rule="nonzero"/><path fill="#8c52ff" d="M 210.078125 239.453125 C 210.027344 239.453125 209.972656 239.449219 209.917969 239.445312 C 209.683594 239.425781 209.464844 239.359375 209.253906 239.25 C 209.046875 239.140625 208.867188 238.996094 208.714844 238.816406 C 208.566406 238.636719 208.457031 238.433594 208.386719 238.210938 C 208.316406 237.984375 208.292969 237.753906 208.3125 237.519531 L 208.359375 237 C 208.605469 234.414062 208.882812 231.480469 206.605469 229.375 C 204.964844 227.863281 202.066406 226.410156 200.132812 226.574219 C 197.621094 226.796875 196.050781 227.546875 195.464844 228.804688 C 194.648438 230.570312 194.492188 233.722656 195.035156 234.207031 C 195.238281 234.324219 195.410156 234.476562 195.554688 234.664062 C 195.695312 234.847656 195.800781 235.054688 195.859375 235.28125 C 195.921875 235.511719 195.9375 235.738281 195.90625 235.972656 C 195.875 236.207031 195.800781 236.425781 195.683594 236.628906 C 195.566406 236.832031 195.414062 237.003906 195.226562 237.148438 C 195.042969 237.292969 194.835938 237.394531 194.609375 237.457031 C 194.382812 237.515625 194.152344 237.53125 193.917969 237.5 C 193.6875 237.46875 193.46875 237.394531 193.265625 237.277344 C 189.90625 235.359375 191.371094 229.214844 192.253906 227.308594 C 193.414062 224.816406 195.960938 223.378906 199.824219 223.042969 C 203.082031 222.746094 206.847656 224.777344 209.003906 226.769531 C 212.574219 230.0625 212.164062 234.441406 211.886719 237.335938 L 211.839844 237.835938 C 211.820312 238.058594 211.761719 238.265625 211.664062 238.464844 C 211.566406 238.664062 211.433594 238.835938 211.273438 238.988281 C 211.109375 239.136719 210.925781 239.25 210.71875 239.332031 C 210.511719 239.414062 210.300781 239.453125 210.078125 239.453125 Z M 210.078125 239.453125 " fill-opacity="1" fill-rule="nonzero"/><path fill="#8c52ff" d="M 242.394531 65.878906 L 240.261719 63.9375 C 240.65625 63.503906 241.148438 62.902344 241.710938 62.210938 C 243.902344 59.523438 247.21875 55.464844 250.613281 54.058594 C 254.664062 52.394531 259.472656 52.808594 263.644531 53.433594 L 268.386719 54.15625 C 275.164062 55.191406 283.597656 56.480469 289.027344 57.101562 C 293.695312 57.621094 297.410156 56.261719 302.242188 53.71875 L 303.582031 56.273438 C 298.386719 59.007812 294.074219 60.5625 288.699219 59.96875 C 283.21875 59.339844 274.753906 58.046875 267.953125 57.003906 L 263.214844 56.285156 C 259.433594 55.714844 255.113281 55.320312 251.714844 56.726562 C 248.992188 57.847656 245.953125 61.574219 243.941406 64.035156 C 243.339844 64.773438 242.816406 65.414062 242.394531 65.878906 Z M 242.394531 65.878906 " fill-opacity="1" fill-rule="nonzero"/><path fill="#8c52ff" d="M 243.480469 139.363281 L 243.066406 139.144531 C 239.125 137.074219 238.019531 134.226562 237.785156 132.207031 C 237.285156 127.871094 240.25 123.171875 243.410156 120.433594 C 244.773438 119.25 247.632812 116.667969 250.726562 113.871094 C 256.230469 108.898438 260.175781 105.34375 261.84375 103.976562 C 260.917969 88.863281 251.871094 86.527344 247.976562 86.226562 C 246.304688 86.125 230.066406 88.402344 227.183594 89.21875 C 226.574219 90.570312 224.957031 95.328125 223.636719 99.21875 C 221.359375 105.917969 219.8125 110.410156 219.070312 111.730469 C 217.246094 114.980469 212.863281 116.929688 209.566406 117.363281 C 206.960938 117.714844 204.851562 117.195312 203.601562 115.917969 C 203.03125 115.335938 203.066406 114.496094 203.171875 113.460938 C 203.585938 109.34375 209.578125 80.632812 212.828125 78.421875 C 223.984375 70.835938 242.039062 63.179688 247.304688 61.011719 L 248.398438 63.679688 C 243.195312 65.820312 225.375 73.378906 214.445312 80.808594 C 212.492188 82.921875 206.117188 109.621094 205.988281 114.152344 C 206.664062 114.554688 207.820312 114.691406 209.1875 114.507812 C 212.277344 114.097656 215.449219 112.300781 216.558594 110.320312 C 217.226562 109.132812 219.269531 103.121094 220.910156 98.292969 C 224.472656 87.796875 224.730469 87.335938 225.355469 86.886719 C 227.042969 85.667969 247.066406 83.261719 248.09375 83.34375 C 251.882812 83.632812 263.96875 86.003906 264.761719 104.589844 L 264.796875 105.390625 L 264.140625 105.839844 C 263.230469 106.464844 257.121094 111.984375 252.660156 116.015625 C 249.546875 118.828125 246.671875 121.425781 245.296875 122.617188 C 242.792969 124.785156 240.273438 128.609375 240.648438 131.875 C 240.855469 133.671875 241.957031 135.167969 243.925781 136.328125 C 248.796875 134.546875 279.800781 114.9375 286.433594 109.925781 C 289.203125 107.832031 295.488281 102.058594 300.082031 97.839844 C 302.027344 96.054688 303.714844 94.503906 304.804688 93.53125 C 308.855469 89.925781 319.894531 83.539062 320.5 83.289062 L 321.59375 85.960938 C 320.902344 86.300781 310.421875 92.394531 306.71875 95.6875 C 305.636719 96.652344 303.957031 98.195312 302.027344 99.964844 C 297.136719 104.457031 291.046875 110.050781 288.167969 112.226562 C 283.167969 116.007812 248.175781 138.671875 243.949219 139.300781 Z M 243.480469 139.363281 " fill-opacity="1" fill-rule="nonzero"/><path fill="#8c52ff" d="M 245.003906 121.921875 C 243.402344 121.710938 238.527344 119.207031 237.511719 118.199219 C 236.996094 117.691406 235.929688 115.753906 232.523438 109.359375 C 230.703125 105.9375 228.816406 102.398438 227.984375 101.070312 C 226.816406 99.214844 228.375 95.074219 232.078125 87.0625 L 232.667969 85.792969 L 235.285156 86.992188 L 234.695312 88.273438 C 233.445312 90.976562 230.128906 98.160156 230.480469 99.660156 C 231.308594 100.949219 233.132812 104.378906 235.066406 108.003906 C 236.78125 111.21875 239.128906 115.625 239.589844 116.203125 C 240.1875 116.753906 244.433594 118.9375 245.375 119.0625 Z M 245.003906 121.921875 " fill-opacity="1" fill-rule="nonzero"/><path fill="#8c52ff" d="M 253.074219 114.652344 C 252.847656 114.523438 252.257812 114.292969 251.570312 114.015625 C 249.890625 113.332031 248.550781 112.773438 247.859375 112.300781 L 247.519531 112.074219 L 247.355469 111.707031 C 247.089844 111.113281 246.769531 110.433594 246.425781 109.695312 C 244.972656 106.578125 242.984375 102.3125 242.28125 99.289062 L 242.167969 98.8125 L 242.371094 98.363281 C 244.390625 93.945312 246.507812 89.820312 248.746094 85.453125 L 249.167969 84.636719 L 251.730469 85.953125 L 251.3125 86.773438 C 249.160156 90.957031 247.128906 94.914062 245.203125 99.101562 C 245.933594 101.816406 247.714844 105.640625 249.039062 108.476562 C 249.3125 109.054688 249.5625 109.601562 249.792969 110.101562 C 250.472656 110.457031 251.753906 110.976562 252.65625 111.34375 C 253.488281 111.683594 254.191406 111.972656 254.46875 112.128906 Z M 253.074219 114.652344 " fill-opacity="1" fill-rule="nonzero"/><path fill="#8c52ff" d="M 261.851562 101.953125 C 261.21875 101.734375 260.691406 101.589844 260.148438 101.441406 C 258.304688 100.953125 256.527344 100.292969 254.816406 99.453125 L 253.722656 98.941406 L 254.035156 97.773438 C 254.21875 97.089844 254.503906 96.265625 254.832031 95.328125 C 255.515625 93.496094 256.0625 91.625 256.472656 89.714844 L 259.300781 90.261719 C 258.867188 92.3125 258.28125 94.316406 257.550781 96.277344 C 257.417969 96.660156 257.292969 97.015625 257.179688 97.355469 C 258.386719 97.886719 259.628906 98.320312 260.910156 98.652344 C 261.511719 98.820312 262.097656 98.980469 262.808594 99.230469 Z M 261.851562 101.953125 " fill-opacity="1" fill-rule="nonzero"/><path fill="#8c52ff" d="M 257.441406 111.734375 C 256.460938 111.65625 248.941406 110.539062 246.953125 109.511719 L 248.273438 106.949219 C 249.527344 107.59375 256.324219 108.753906 257.667969 108.855469 Z M 257.441406 111.734375 " fill-opacity="1" fill-rule="nonzero"/><path fill="#8c52ff" d="M 319.835938 95.535156 C 317.695312 95.535156 314.960938 93.851562 311.808594 90.558594 L 313.886719 88.5625 C 317.332031 92.160156 319.527344 92.945312 320.167969 92.578125 C 321.648438 91.738281 320.839844 83.875 313.957031 71.195312 C 307.589844 59.460938 300.9375 54.28125 298.601562 55.023438 C 298.367188 55.097656 297.964844 55.941406 298.167969 58.082031 L 295.300781 58.355469 C 294.890625 54.109375 296.386719 52.707031 297.714844 52.277344 C 303.175781 50.515625 311.058594 59.816406 316.488281 69.820312 C 321.878906 79.753906 326.449219 92.332031 321.585938 95.089844 C 321.042969 95.394531 320.460938 95.542969 319.835938 95.535156 Z M 319.835938 95.535156 " fill-opacity="1" fill-rule="nonzero"/><path fill="#8c52ff" d="M 332.464844 95.386719 C 330.503906 95.386719 328.007812 93.792969 324.898438 90.574219 L 326.972656 88.566406 C 330.65625 92.378906 332.375 92.601562 332.644531 92.460938 C 332.933594 92.296875 333.671875 90.503906 331.984375 84.71875 C 330.5 79.625 327.691406 73.296875 324.074219 66.90625 C 320.460938 60.511719 316.488281 54.839844 312.890625 50.945312 C 308.8125 46.527344 306.894531 46.226562 306.601562 46.394531 C 306.433594 46.488281 306.019531 47.25 306.257812 49.464844 L 303.394531 49.777344 C 303.066406 46.722656 303.667969 44.738281 305.179688 43.882812 C 307.4375 42.601562 310.652344 44.273438 315.003906 48.984375 C 318.75 53.042969 322.863281 58.898438 326.582031 65.480469 C 330.304688 72.0625 333.203125 78.609375 334.75 83.910156 C 336.546875 90.070312 336.320312 93.691406 334.0625 94.972656 C 333.566406 95.25 333.035156 95.390625 332.464844 95.386719 Z M 332.464844 95.386719 " fill-opacity="1" fill-rule="nonzero"/><path fill="#8c52ff" d="M 297.464844 52.386719 L 309.578125 45.738281 L 310.964844 48.269531 L 298.847656 54.914062 Z M 297.464844 52.386719 " fill-opacity="1" fill-rule="nonzero"/><path fill="#8c52ff" d="M 320.136719 92.597656 L 332.75 85.074219 L 334.222656 87.554688 L 321.613281 95.078125 Z M 320.136719 92.597656 " fill-opacity="1" fill-rule="nonzero"/><g clip-path="url(#9f3cb8ae0f)"><path fill="#8c52ff" d="M 305.917969 43.546875 L 328.710938 30.9375 L 330.105469 33.460938 L 307.3125 46.070312 Z M 305.917969 43.546875 " fill-opacity="1" fill-rule="nonzero"/></g><path fill="#8c52ff" d="M 332.34375 92.875 L 355.140625 80.265625 L 356.535156 82.789062 L 333.738281 95.398438 Z M 332.34375 92.875 " fill-opacity="1" fill-rule="nonzero"/><path fill="#8c52ff" d="M 326.355469 85.683594 C 324.773438 85.683594 323.351562 84.199219 322.972656 82.15625 C 322.785156 81.210938 322.859375 80.292969 323.199219 79.390625 C 323.363281 78.917969 323.636719 78.511719 324.015625 78.179688 C 324.390625 77.847656 324.824219 77.628906 325.316406 77.519531 L 325.78125 77.476562 C 327.363281 77.476562 328.785156 78.960938 329.164062 81.007812 C 329.582031 83.28125 328.554688 85.320312 326.820312 85.644531 Z M 325.863281 80.484375 C 325.742188 80.859375 325.722656 81.242188 325.804688 81.625 C 325.867188 82.035156 326.03125 82.398438 326.300781 82.710938 C 326.394531 82.320312 326.402344 81.925781 326.332031 81.53125 C 326.269531 81.140625 326.113281 80.792969 325.863281 80.484375 Z M 325.863281 80.484375 " fill-opacity="1" fill-rule="nonzero"/><path fill="#8c52ff" d="M 340.226562 248.503906 C 335.183594 245.496094 331.597656 242.640625 329.308594 237.722656 C 326.972656 232.699219 323.644531 224.769531 320.972656 218.398438 L 319.136719 214.039062 C 317.644531 210.511719 315.722656 206.609375 312.757812 204.449219 C 310.378906 202.710938 305.625 202.058594 302.480469 201.628906 C 301.53125 201.5 300.710938 201.382812 300.089844 201.265625 L 300.636719 198.433594 C 301.214844 198.542969 301.984375 198.648438 302.871094 198.769531 C 306.300781 199.242188 311.488281 199.953125 314.453125 202.117188 C 317.988281 204.695312 320.144531 209.023438 321.792969 212.914062 L 323.628906 217.285156 C 326.292969 223.632812 329.609375 231.53125 331.921875 236.507812 C 333.90625 240.773438 337.007812 243.226562 341.703125 246.027344 Z M 340.226562 248.503906 " fill-opacity="1" fill-rule="nonzero"/><path fill="#8c52ff" d="M 324.34375 279.375 C 323.695312 278.964844 313.039062 273.199219 308.292969 271.753906 C 306.914062 271.335938 304.753906 270.714844 302.265625 270.003906 C 295.855469 268.164062 287.882812 265.875 284.515625 264.546875 C 278.6875 262.25 241.113281 244.207031 238.367188 240.921875 L 238.0625 240.5625 L 238.03125 240.09375 C 237.738281 235.644531 239.585938 233.214844 241.1875 231.957031 C 244.613281 229.269531 250.175781 229.351562 254.152344 230.617188 C 255.863281 231.160156 259.515625 232.242188 263.480469 233.414062 C 270.636719 235.53125 275.753906 237.054688 277.796875 237.765625 C 290.1875 229.082031 287.457031 220.136719 285.679688 216.65625 C 284.882812 215.152344 274.527344 202.527344 272.273438 200.460938 C 270.808594 200.648438 265.910156 201.753906 261.90625 202.65625 C 255.007812 204.210938 250.371094 205.234375 248.859375 205.289062 C 245.109375 205.464844 241.1875 202.703125 239.09375 200.109375 C 237.449219 198.074219 236.78125 195.996094 237.21875 194.269531 C 237.417969 193.476562 238.152344 193.066406 239.09375 192.613281 C 242.8125 190.820312 270.402344 180.964844 273.976562 182.566406 C 286.261719 188.132812 302.210938 199.546875 306.804688 202.914062 L 305.105469 205.242188 C 300.566406 201.917969 284.820312 190.644531 272.789062 185.195312 C 269.941406 184.628906 243.894531 193.128906 239.964844 195.386719 C 239.976562 196.167969 240.464844 197.21875 241.335938 198.296875 C 243.296875 200.722656 246.417969 202.535156 248.753906 202.40625 C 250.113281 202.355469 256.300781 200.960938 261.273438 199.839844 C 272.070312 197.40625 272.59375 197.382812 273.304688 197.679688 C 275.21875 198.480469 287.714844 214.277344 288.195312 215.25 C 289.925781 218.636719 294.21875 230.195312 278.796875 240.574219 L 278.132812 241.019531 L 277.40625 240.695312 C 276.398438 240.246094 268.460938 237.894531 262.664062 236.183594 C 258.675781 235 255.003906 233.914062 253.28125 233.367188 C 250.121094 232.355469 245.546875 232.203125 242.964844 234.230469 C 241.542969 235.347656 240.84375 237.066406 240.882812 239.351562 C 244.945312 242.585938 277.835938 258.820312 285.570312 261.867188 C 288.8125 263.140625 297.046875 265.503906 303.0625 267.230469 C 305.566406 267.953125 307.742188 268.570312 309.128906 268.992188 C 314.316406 270.574219 325.519531 276.664062 326.046875 277.050781 Z M 324.34375 279.375 " fill-opacity="1" fill-rule="nonzero"/><path fill="#8c52ff" d="M 253.714844 232.753906 C 253.058594 231.28125 252.648438 225.804688 252.976562 224.414062 C 253.140625 223.710938 254.230469 221.792969 257.890625 215.558594 C 259.859375 212.207031 261.898438 208.742188 262.59375 207.335938 C 263.566406 205.371094 267.902344 204.539062 276.660156 203.519531 L 278.054688 203.355469 L 278.402344 206.21875 L 276.996094 206.382812 C 274.039062 206.730469 266.191406 207.640625 265.097656 208.730469 C 264.429688 210.113281 262.460938 213.46875 260.375 217.023438 C 258.535156 220.15625 256.011719 224.449219 255.761719 225.148438 C 255.601562 225.945312 255.960938 230.710938 256.347656 231.578125 Z M 253.714844 232.753906 " fill-opacity="1" fill-rule="nonzero"/><path fill="#8c52ff" d="M 264.125 235.851562 C 264.113281 235.585938 264.003906 234.964844 263.882812 234.234375 C 263.609375 232.890625 263.449219 231.539062 263.402344 230.171875 L 263.421875 229.765625 L 263.648438 229.429688 C 264.007812 228.898438 264.417969 228.285156 264.859375 227.617188 C 266.757812 224.738281 269.359375 220.800781 271.574219 218.613281 L 271.925781 218.265625 L 272.414062 218.207031 C 277.203125 217.628906 281.796875 217.28125 286.65625 216.917969 L 287.660156 216.84375 L 287.875 219.71875 L 286.871094 219.796875 C 282.214844 220.144531 277.808594 220.472656 273.261719 221.011719 C 271.320312 223.058594 268.988281 226.589844 267.261719 229.207031 C 266.914062 229.730469 266.585938 230.226562 266.289062 230.667969 C 266.339844 231.433594 266.566406 232.804688 266.726562 233.761719 C 266.871094 234.648438 266.992188 235.402344 267.007812 235.722656 Z M 264.125 235.851562 " fill-opacity="1" fill-rule="nonzero"/><path fill="#8c52ff" d="M 279.523438 236.71875 C 279.382812 236.058594 279.226562 235.53125 279.070312 234.992188 C 278.523438 233.164062 278.160156 231.300781 277.980469 229.402344 L 277.84375 228.199219 L 279.003906 227.859375 C 279.683594 227.65625 280.535156 227.472656 281.5 227.261719 C 283.417969 226.890625 285.300781 226.378906 287.144531 225.734375 L 288.152344 228.4375 C 286.179688 229.132812 284.164062 229.679688 282.109375 230.082031 C 281.71875 230.164062 281.347656 230.246094 281 230.324219 C 281.175781 231.636719 281.457031 232.921875 281.839844 234.1875 C 282.015625 234.789062 282.183594 235.378906 282.339844 236.113281 Z M 279.523438 236.71875 " fill-opacity="1" fill-rule="nonzero"/><path fill="#8c52ff" d="M 268.894531 238.058594 C 268.464844 237.21875 265.46875 230.148438 265.304688 227.941406 L 268.179688 227.726562 C 268.28125 229.152344 270.847656 235.550781 271.457031 236.746094 Z M 268.894531 238.058594 " fill-opacity="1" fill-rule="nonzero"/><path fill="#8c52ff" d="M 318.242188 284.566406 C 317.644531 284.570312 317.082031 284.429688 316.554688 284.136719 C 314.242188 282.851562 313.808594 279.148438 315.3125 273.425781 L 318.097656 274.15625 C 316.832031 278.984375 317.320312 281.261719 317.953125 281.617188 C 319.449219 282.453125 325.726562 277.640625 332.925781 265.148438 C 339.601562 253.582031 340.5625 245.199219 338.6875 243.59375 C 338.5 243.433594 337.574219 243.527344 335.859375 244.820312 L 334.128906 242.515625 C 337.527344 239.949219 339.503906 240.492188 340.5625 241.402344 C 344.90625 245.121094 341.109375 256.734375 335.421875 266.589844 C 331.332031 273.683594 323.570312 284.566406 318.242188 284.566406 Z M 318.242188 284.566406 " fill-opacity="1" fill-rule="nonzero"/><path fill="#8c52ff" d="M 324.703125 295.121094 C 324.160156 295.125 323.648438 294.996094 323.171875 294.730469 C 321.027344 293.535156 320.6875 290.226562 322.140625 284.613281 L 324.925781 285.335938 C 323.601562 290.46875 324.308594 292.0625 324.570312 292.210938 C 325.945312 292.941406 333.414062 286.808594 341.871094 271.546875 C 350.328125 256.273438 351.554688 246.65625 350.21875 245.914062 C 350.058594 245.828125 349.191406 245.867188 347.421875 247.230469 L 345.664062 244.949219 C 348.09375 243.074219 350.097656 242.546875 351.613281 243.390625 C 357.148438 246.464844 349.304688 264.066406 344.386719 272.949219 C 339.890625 281.066406 330.511719 295.117188 324.703125 295.121094 Z M 324.703125 295.121094 " fill-opacity="1" fill-rule="nonzero"/><path fill="#8c52ff" d="M 338.910156 243.746094 L 340.34375 241.246094 L 352.328125 248.117188 L 350.898438 250.617188 Z M 338.910156 243.746094 " fill-opacity="1" fill-rule="nonzero"/><path fill="#8c52ff" d="M 316.585938 284.15625 L 317.929688 281.601562 L 330.921875 288.445312 L 329.578125 291 Z M 316.585938 284.15625 " fill-opacity="1" fill-rule="nonzero"/><path fill="#8c52ff" d="M 350.859375 246.355469 L 352.285156 243.847656 L 374.929688 256.730469 L 373.503906 259.238281 Z M 350.859375 246.355469 " fill-opacity="1" fill-rule="nonzero"/><path fill="#8c52ff" d="M 322.636719 294.675781 L 324.058594 292.167969 L 346.703125 305.050781 L 345.28125 307.558594 Z M 322.636719 294.675781 " fill-opacity="1" fill-rule="nonzero"/><path fill="#8c52ff" d="M 329.4375 284.558594 C 328.605469 284.578125 327.902344 284.285156 327.335938 283.671875 C 327.011719 283.285156 326.800781 282.847656 326.707031 282.351562 C 326.613281 281.859375 326.640625 281.375 326.800781 280.894531 C 327.078125 279.976562 327.578125 279.199219 328.304688 278.570312 C 329.957031 277.074219 332.328125 276.878906 333.472656 278.152344 C 333.796875 278.535156 334.007812 278.976562 334.101562 279.46875 C 334.199219 279.964844 334.167969 280.453125 334.011719 280.929688 C 333.730469 281.847656 333.230469 282.625 332.507812 283.257812 C 331.644531 284.074219 330.625 284.507812 329.4375 284.558594 Z M 331.230469 280.175781 C 330.847656 280.261719 330.511719 280.441406 330.230469 280.714844 C 329.925781 280.96875 329.710938 281.285156 329.578125 281.660156 C 329.957031 281.558594 330.289062 281.375 330.582031 281.113281 C 330.871094 280.851562 331.085938 280.539062 331.230469 280.175781 Z M 331.230469 280.175781 " fill-opacity="1" fill-rule="nonzero"/><path fill="#8c52ff" d="M 114.023438 74.863281 C 113.597656 74.402344 113.0625 73.765625 112.453125 73.035156 C 110.414062 70.59375 107.339844 66.90625 104.601562 65.808594 C 101.191406 64.445312 96.875 64.882812 93.097656 65.496094 L 88.386719 66.265625 C 81.589844 67.378906 73.136719 68.765625 67.652344 69.453125 C 62.273438 70.125 57.957031 68.597656 52.730469 65.921875 L 54.042969 63.355469 C 58.902344 65.84375 62.628906 67.183594 67.296875 66.585938 C 72.722656 65.90625 81.148438 64.527344 87.921875 63.417969 L 92.640625 62.648438 C 96.800781 61.976562 101.605469 61.5 105.671875 63.132812 C 109.082031 64.5 112.441406 68.523438 114.664062 71.183594 C 115.234375 71.871094 115.730469 72.46875 116.132812 72.898438 Z M 114.023438 74.863281 " fill-opacity="1" fill-rule="nonzero"/><path fill="#8c52ff" d="M 113.726562 148.355469 L 113.261719 148.292969 C 109.023438 147.707031 73.792969 125.425781 68.75 121.699219 C 65.84375 119.550781 59.6875 114.015625 54.738281 109.570312 C 52.796875 107.824219 51.113281 106.3125 50.023438 105.363281 C 46.289062 102.113281 35.738281 96.128906 34.996094 95.777344 L 36.109375 93.117188 C 36.71875 93.355469 47.835938 99.632812 51.914062 103.183594 C 53.011719 104.140625 54.710938 105.664062 56.664062 107.421875 C 61.308594 111.59375 67.667969 117.308594 70.464844 119.378906 C 77.148438 124.316406 108.347656 143.582031 113.25 145.316406 C 115.207031 144.136719 116.292969 142.628906 116.480469 140.832031 C 116.820312 137.558594 114.257812 133.765625 111.730469 131.621094 C 110.34375 130.445312 107.4375 127.878906 104.289062 125.09375 C 99.789062 121.117188 93.625 115.667969 92.710938 115.054688 L 92.050781 114.609375 L 92.074219 113.808594 C 92.664062 95.226562 104.722656 92.71875 108.402344 92.390625 C 109.601562 92.3125 129.597656 94.480469 131.289062 95.679688 C 131.914062 96.125 132.175781 96.582031 135.847656 107.023438 C 137.542969 111.835938 139.652344 117.832031 140.332031 119.011719 C 141.46875 120.984375 144.65625 122.75 147.753906 123.121094 C 149.125 123.285156 150.277344 123.140625 150.945312 122.734375 C 150.765625 118.203125 144.101562 91.570312 142.039062 89.414062 C 131.125 82.175781 113.214844 74.804688 107.992188 72.722656 L 109.058594 70.042969 C 114.351562 72.15625 132.488281 79.621094 143.71875 87.082031 C 146.992188 89.253906 153.296875 117.898438 153.753906 122.007812 C 153.871094 123.042969 153.914062 123.886719 153.355469 124.476562 C 152.121094 125.765625 150.015625 126.304688 147.410156 125.988281 C 144.109375 125.589844 139.703125 123.691406 137.839844 120.457031 C 137.082031 119.144531 135.484375 114.664062 133.136719 107.984375 C 131.753906 104.058594 130.0625 99.25 129.460938 97.980469 C 127.058594 97.285156 110.449219 95.066406 108.792969 95.253906 C 104.773438 95.609375 95.75 98.054688 94.988281 113.164062 C 96.667969 114.515625 100.648438 118.023438 106.203125 122.933594 C 109.328125 125.699219 112.21875 128.25 113.597656 129.421875 C 116.789062 132.125 119.800781 136.796875 119.351562 141.132812 C 119.136719 143.160156 118.0625 146.015625 114.140625 148.128906 Z M 113.726562 148.355469 " fill-opacity="1" fill-rule="nonzero"/><path fill="#8c52ff" d="M 112.015625 130.929688 L 111.617188 128.074219 C 112.554688 127.9375 116.78125 125.714844 117.425781 125.09375 C 117.824219 124.570312 120.125 120.148438 121.796875 116.921875 C 123.695312 113.265625 125.484375 109.8125 126.359375 108.386719 C 126.640625 107.007812 123.242188 99.855469 121.964844 97.164062 L 121.363281 95.894531 L 123.972656 94.667969 L 124.566406 95.925781 C 128.359375 103.902344 129.964844 108.023438 128.820312 109.894531 C 128 111.234375 126.144531 114.800781 124.355469 118.25 C 121.027344 124.667969 119.980469 126.613281 119.472656 127.125 C 118.460938 128.148438 113.613281 130.707031 112.015625 130.929688 Z M 112.015625 130.929688 " fill-opacity="1" fill-rule="nonzero"/><path fill="#8c52ff" d="M 103.871094 123.75 L 102.449219 121.238281 C 102.726562 121.082031 103.425781 120.78125 104.257812 120.429688 C 105.152344 120.058594 106.429688 119.523438 107.105469 119.160156 C 107.328125 118.65625 107.578125 118.101562 107.847656 117.511719 C 109.132812 114.671875 110.871094 110.832031 111.570312 108.113281 C 109.589844 103.925781 107.5 99.960938 105.292969 95.777344 L 104.902344 95.035156 L 107.449219 93.691406 L 107.839844 94.429688 C 110.144531 98.796875 112.320312 102.921875 114.394531 107.34375 L 114.601562 107.789062 L 114.5 108.269531 C 113.828125 111.296875 111.886719 115.578125 110.46875 118.707031 C 110.132812 119.453125 109.820312 120.140625 109.558594 120.738281 L 109.394531 121.113281 L 109.058594 121.34375 C 107.878906 122.03125 106.648438 122.613281 105.371094 123.09375 C 104.683594 123.378906 104.097656 123.617188 103.871094 123.75 Z M 103.871094 123.75 " fill-opacity="1" fill-rule="nonzero"/><path fill="#8c52ff" d="M 94.953125 111.148438 L 93.972656 108.433594 C 94.675781 108.179688 95.265625 108.007812 95.867188 107.835938 C 97.140625 107.492188 98.378906 107.046875 99.578125 106.5 C 99.464844 106.167969 99.335938 105.8125 99.199219 105.441406 C 98.445312 103.484375 97.839844 101.480469 97.378906 99.429688 L 100.203125 98.847656 C 100.632812 100.761719 101.203125 102.628906 101.90625 104.460938 C 102.242188 105.382812 102.539062 106.203125 102.726562 106.882812 L 103.054688 108.042969 L 101.964844 108.570312 C 100.261719 109.425781 98.496094 110.105469 96.660156 110.613281 C 96.117188 110.765625 95.589844 110.917969 94.953125 111.148438 Z M 94.953125 111.148438 " fill-opacity="1" fill-rule="nonzero"/><path fill="#8c52ff" d="M 99.46875 120.875 L 99.21875 118.003906 C 100.558594 117.882812 107.335938 116.65625 108.585938 115.992188 L 109.9375 118.542969 C 107.988281 119.574219 100.410156 120.792969 99.46875 120.875 Z M 99.46875 120.875 " fill-opacity="1" fill-rule="nonzero"/><path fill="#8c52ff" d="M 36.859375 105.359375 C 36.253906 105.363281 35.683594 105.222656 35.152344 104.929688 C 30.253906 102.226562 34.6875 89.597656 39.976562 79.605469 C 45.292969 69.542969 53.105469 60.171875 58.558594 61.863281 C 59.890625 62.277344 61.398438 63.667969 61.035156 67.914062 L 58.164062 67.667969 C 58.347656 65.527344 57.933594 64.6875 57.703125 64.617188 C 55.324219 63.851562 48.761719 69.148438 42.519531 80.953125 C 35.777344 93.710938 35.050781 101.582031 36.542969 102.40625 C 37.179688 102.753906 39.371094 101.957031 42.777344 98.316406 L 44.878906 100.292969 C 41.738281 103.640625 39.011719 105.359375 36.859375 105.359375 Z M 36.859375 105.359375 " fill-opacity="1" fill-rule="nonzero"/><path fill="#8c52ff" d="M 24.234375 105.34375 C 23.679688 105.347656 23.15625 105.214844 22.671875 104.945312 C 17.128906 101.886719 24.929688 84.265625 29.832031 75.375 C 33.480469 68.753906 37.527344 62.851562 41.230469 58.757812 C 45.53125 53.992188 48.722656 52.292969 51 53.546875 C 52.523438 54.386719 53.144531 56.363281 52.847656 59.421875 L 49.980469 59.140625 C 50.195312 56.921875 49.773438 56.160156 49.605469 56.070312 C 49.320312 55.917969 47.40625 56.21875 43.367188 60.691406 C 39.8125 64.628906 35.902344 70.335938 32.355469 76.769531 C 23.929688 92.058594 22.722656 101.679688 24.066406 102.421875 C 24.332031 102.574219 26.066406 102.308594 29.691406 98.464844 L 31.785156 100.449219 C 28.691406 103.726562 26.199219 105.34375 24.234375 105.34375 Z M 24.234375 105.34375 " fill-opacity="1" fill-rule="nonzero"/><path fill="#8c52ff" d="M 45.265625 57.992188 L 46.625 55.449219 L 58.808594 61.96875 L 57.449219 64.511719 Z M 45.265625 57.992188 " fill-opacity="1" fill-rule="nonzero"/><path fill="#8c52ff" d="M 22.429688 97.53125 L 23.875 95.039062 L 36.570312 102.421875 L 35.121094 104.914062 Z M 22.429688 97.53125 " fill-opacity="1" fill-rule="nonzero"/><path fill="#8c52ff" d="M 25.964844 43.398438 L 27.328125 40.859375 L 50.261719 53.222656 L 48.894531 55.761719 Z M 25.964844 43.398438 " fill-opacity="1" fill-rule="nonzero"/><path fill="#8c52ff" d="M 0.0703125 93.011719 L 1.433594 90.472656 L 24.367188 102.832031 L 23.003906 105.371094 Z M 0.0703125 93.011719 " fill-opacity="1" fill-rule="nonzero"/><path fill="#8c52ff" d="M 30.253906 95.574219 L 29.816406 95.535156 C 29.070312 95.394531 28.480469 95.007812 28.054688 94.378906 C 27.375 93.316406 27.164062 92.164062 27.421875 90.929688 C 27.777344 88.859375 29.195312 87.359375 30.792969 87.359375 L 31.230469 87.398438 C 31.722656 87.5 32.160156 87.714844 32.539062 88.042969 C 32.921875 88.375 33.195312 88.777344 33.367188 89.25 C 33.71875 90.144531 33.804688 91.066406 33.625 92.011719 C 33.265625 94.074219 31.847656 95.574219 30.253906 95.574219 Z M 30.714844 90.371094 C 30.464844 90.679688 30.3125 91.03125 30.257812 91.421875 C 30.179688 91.8125 30.203125 92.191406 30.332031 92.566406 C 30.566406 92.25 30.71875 91.902344 30.785156 91.515625 C 30.851562 91.128906 30.828125 90.746094 30.714844 90.371094 Z M 30.714844 90.371094 " fill-opacity="1" fill-rule="nonzero"/><path fill="#8c52ff" d="M 38.058594 286.753906 L 35.886719 284.867188 C 39.460938 280.734375 41.640625 277.429688 42.1875 272.753906 C 42.828125 267.300781 43.503906 258.753906 44.042969 251.886719 L 44.421875 247.175781 C 44.757812 242.964844 45.453125 238.179688 48 234.621094 C 50.140625 231.632812 54.84375 229.324219 57.953125 227.800781 C 58.757812 227.410156 59.457031 227.066406 59.972656 226.78125 L 61.375 229.300781 C 60.824219 229.605469 60.078125 229.972656 59.21875 230.394531 C 56.367188 231.792969 52.058594 233.90625 50.34375 236.300781 C 48.203125 239.289062 47.597656 243.59375 47.292969 247.410156 L 46.917969 252.113281 C 46.371094 259.007812 45.695312 267.582031 45.046875 273.09375 C 44.417969 278.480469 41.90625 282.316406 38.058594 286.753906 Z M 38.058594 286.753906 " fill-opacity="1" fill-rule="nonzero"/><path fill="#8c52ff" d="M 62.78125 311.128906 L 60.46875 309.410156 C 60.847656 308.878906 69.582031 299.574219 74.007812 296.449219 C 75.191406 295.613281 77.066406 294.335938 79.21875 292.867188 C 84.390625 289.34375 91.46875 284.511719 94.148438 282.28125 C 100.53125 276.964844 126.671875 251.234375 129.527344 246.878906 C 128.847656 244.695312 127.648438 243.28125 125.945312 242.664062 C 122.863281 241.558594 118.5625 243.136719 115.878906 245.082031 C 114.410156 246.148438 111.238281 248.351562 107.796875 250.738281 C 102.851562 254.171875 96.082031 258.875 95.265625 259.617188 L 94.675781 260.152344 L 93.90625 259.9375 C 76.015625 254.925781 76.46875 242.601562 77.035156 238.945312 C 77.203125 237.769531 84.125 218.839844 85.691406 217.484375 C 86.269531 216.980469 86.773438 216.835938 97.796875 215.757812 C 102.867188 215.261719 109.175781 214.644531 110.480469 214.265625 C 112.664062 213.632812 115.136719 210.949219 116.238281 208.03125 C 116.726562 206.738281 116.863281 205.585938 116.628906 204.839844 C 112.183594 203.925781 84.765625 204.050781 82.183594 205.535156 C 72.546875 214.425781 61.128906 230.070312 57.859375 234.652344 L 55.515625 232.976562 C 58.824219 228.339844 70.390625 212.492188 80.316406 203.347656 C 83.207031 200.6875 112.5 201.398438 116.589844 201.933594 C 117.625 202.070312 118.449219 202.226562 118.886719 202.914062 C 119.839844 204.417969 119.859375 206.597656 118.933594 209.050781 C 117.761719 212.167969 114.863281 215.996094 111.285156 217.039062 C 109.832031 217.457031 105.109375 217.941406 98.078125 218.632812 C 93.9375 219.035156 88.863281 219.53125 87.484375 219.816406 C 86.230469 221.992188 80.171875 237.683594 79.902344 239.257812 C 79.285156 243.253906 79.496094 252.609375 93.976562 256.957031 C 95.691406 255.648438 100.050781 252.609375 106.15625 248.371094 C 109.578125 245.996094 112.730469 243.808594 114.191406 242.746094 C 117.578125 240.296875 122.828125 238.480469 126.925781 239.953125 C 128.839844 240.644531 131.351562 242.371094 132.46875 246.6875 L 132.585938 247.144531 L 132.410156 247.582031 C 130.828125 251.566406 100.804688 280.492188 95.988281 284.503906 C 93.207031 286.820312 86.351562 291.496094 80.84375 295.25 C 78.703125 296.714844 76.84375 297.980469 75.667969 298.808594 C 71.621094 301.664062 63.300781 310.492188 62.78125 311.128906 Z M 62.78125 311.128906 " fill-opacity="1" fill-rule="nonzero"/><path fill="#8c52ff" d="M 115.273438 244.644531 L 112.40625 244.351562 C 112.5 243.40625 111.351562 238.773438 110.90625 237.996094 C 110.492188 237.480469 106.753906 234.195312 104.027344 231.796875 C 100.933594 229.078125 98.011719 226.507812 96.832031 225.316406 C 95.570312 224.710938 87.84375 226.308594 84.9375 226.90625 L 83.523438 227.195312 L 82.957031 224.367188 L 84.359375 224.082031 C 92.980469 222.304688 97.351562 221.734375 98.886719 223.292969 C 99.992188 224.410156 103.011719 227.0625 105.929688 229.632812 C 111.355469 234.394531 112.988281 235.875 113.367188 236.492188 C 114.113281 237.710938 115.4375 243.035156 115.273438 244.644531 Z M 115.273438 244.644531 " fill-opacity="1" fill-rule="nonzero"/><path fill="#8c52ff" d="M 103.585938 251.628906 C 103.503906 251.324219 103.375 250.574219 103.238281 249.691406 C 103.101562 248.789062 102.878906 247.367188 102.683594 246.609375 C 102.257812 246.277344 101.785156 245.90625 101.289062 245.515625 C 98.832031 243.574219 95.519531 240.960938 93.039062 239.625 C 88.5 240.554688 84.160156 241.636719 79.574219 242.78125 L 78.761719 242.988281 L 78.0625 240.1875 L 78.875 239.984375 C 83.664062 238.789062 88.183594 237.660156 92.964844 236.699219 L 93.445312 236.601562 L 93.886719 236.820312 C 96.671875 238.195312 100.367188 241.117188 103.070312 243.246094 C 103.703125 243.75 104.289062 244.210938 104.796875 244.601562 L 105.121094 244.847656 L 105.261719 245.226562 C 105.652344 246.542969 105.925781 247.886719 106.082031 249.25 C 106.199219 249.980469 106.285156 250.597656 106.359375 250.847656 Z M 103.585938 251.628906 " fill-opacity="1" fill-rule="nonzero"/><path fill="#8c52ff" d="M 89.144531 256.8125 C 89.066406 256.066406 89.042969 255.457031 89.019531 254.832031 C 88.988281 253.511719 88.851562 252.199219 88.605469 250.898438 C 88.257812 250.933594 87.886719 250.972656 87.488281 251.015625 C 85.410156 251.277344 83.320312 251.390625 81.222656 251.347656 L 81.335938 248.46875 C 83.292969 248.5 85.242188 248.394531 87.183594 248.144531 C 88.160156 248.042969 89.027344 247.953125 89.730469 247.929688 L 90.941406 247.886719 L 91.1875 249.074219 C 91.609375 250.933594 91.847656 252.816406 91.898438 254.722656 C 91.917969 255.285156 91.9375 255.835938 92.011719 256.503906 Z M 89.144531 256.8125 " fill-opacity="1" fill-rule="nonzero"/><path fill="#8c52ff" d="M 102.523438 254.4375 L 99.679688 254 C 99.882812 252.664062 100.3125 245.777344 99.96875 244.410156 L 102.761719 243.707031 C 103.308594 245.878906 102.675781 253.46875 102.523438 254.4375 Z M 102.523438 254.4375 " fill-opacity="1" fill-rule="nonzero"/><path fill="#8c52ff" d="M 68.628906 314.347656 C 63.554688 314.347656 55.039062 308.449219 48.285156 302.425781 C 39.800781 294.851562 32.558594 285.015625 35.515625 280.121094 C 36.238281 278.925781 37.9375 277.785156 41.976562 279.15625 L 41.058594 281.886719 C 39.023438 281.207031 38.105469 281.40625 37.984375 281.613281 C 36.707031 283.726562 40.246094 291.386719 50.207031 300.273438 C 60.964844 309.878906 68.421875 312.457031 69.582031 311.207031 C 70.074219 310.671875 69.820312 308.355469 67.109375 304.167969 L 69.523438 302.597656 C 72.742188 307.5625 73.492188 311.214844 71.699219 313.164062 C 71.296875 313.574219 70.828125 313.882812 70.292969 314.089844 C 69.757812 314.296875 69.203125 314.382812 68.628906 314.347656 Z M 68.628906 314.347656 " fill-opacity="1" fill-rule="nonzero"/><path fill="#8c52ff" d="M 65.945312 326.386719 C 63.984375 326.386719 61.289062 325.410156 57.820312 323.445312 C 53.015625 320.726562 47.316406 316.402344 41.761719 311.273438 C 36.210938 306.140625 31.457031 300.796875 28.367188 296.222656 C 24.777344 290.902344 23.886719 287.386719 25.648438 285.480469 C 26.828125 284.203125 28.894531 284.070312 31.78125 285.085938 L 30.832031 287.808594 C 28.730469 287.066406 27.890625 287.292969 27.761719 287.4375 C 27.539062 287.679688 27.382812 289.617188 30.753906 294.605469 C 33.722656 299.003906 38.324219 304.171875 43.71875 309.15625 C 49.113281 314.140625 54.625 318.320312 59.238281 320.933594 C 64.476562 323.894531 66.386719 323.585938 66.613281 323.34375 C 66.820312 323.125 66.996094 321.386719 64.125 316.929688 L 66.546875 315.363281 C 69.6875 320.242188 70.402344 323.492188 68.730469 325.300781 C 68.367188 325.675781 67.941406 325.957031 67.457031 326.148438 C 66.96875 326.335938 66.46875 326.414062 65.945312 326.386719 Z M 65.945312 326.386719 " fill-opacity="1" fill-rule="nonzero"/><path fill="#8c52ff" d="M 26.449219 290.191406 L 35.675781 279.898438 L 37.816406 281.824219 L 28.589844 292.117188 Z M 26.449219 290.191406 " fill-opacity="1" fill-rule="nonzero"/><path fill="#8c52ff" d="M 59.410156 321.761719 L 69.601562 311.183594 L 71.675781 313.1875 L 61.484375 323.761719 Z M 59.410156 321.761719 " fill-opacity="1" fill-rule="nonzero"/><path fill="#8c52ff" d="M 7.6875 305.46875 L 25.148438 286.121094 L 27.289062 288.054688 L 9.824219 307.402344 Z M 7.6875 305.46875 " fill-opacity="1" fill-rule="nonzero"/><g clip-path="url(#c9faa8980b)"><path fill="#8c52ff" d="M 49.621094 342.488281 L 67.085938 323.144531 L 69.222656 325.078125 L 51.761719 344.421875 Z M 49.621094 342.488281 " fill-opacity="1" fill-rule="nonzero"/></g><path fill="#8c52ff" d="M 58.363281 317.792969 C 57.636719 317.785156 56.9375 317.632812 56.273438 317.335938 C 54.152344 316.402344 53.050781 314.40625 53.761719 312.785156 C 54.449219 311.207031 56.742188 310.660156 58.800781 311.558594 C 60.921875 312.492188 62.023438 314.488281 61.3125 316.109375 C 60.851562 317.164062 59.746094 317.792969 58.363281 317.792969 Z M 56.515625 314 C 56.757812 314.316406 57.0625 314.546875 57.429688 314.695312 C 57.789062 314.851562 58.164062 314.921875 58.554688 314.894531 C 58.3125 314.582031 58.007812 314.347656 57.640625 314.199219 C 57.28125 314.042969 56.90625 313.976562 56.515625 314 Z M 56.515625 314 " fill-opacity="1" fill-rule="nonzero"/><path fill="#8c52ff" d="M 149.132812 174.886719 L 149.089844 174.886719 C 148.855469 174.882812 148.632812 174.832031 148.421875 174.738281 C 148.207031 174.644531 148.023438 174.511719 147.859375 174.34375 C 147.699219 174.171875 147.578125 173.980469 147.496094 173.761719 C 147.410156 173.546875 147.371094 173.320312 147.378906 173.085938 C 147.515625 167.460938 147.726562 162.335938 148.328125 154.179688 C 148.34375 153.945312 148.40625 153.726562 148.511719 153.515625 C 148.617188 153.308594 148.757812 153.128906 148.933594 152.976562 C 149.109375 152.824219 149.308594 152.710938 149.527344 152.636719 C 149.75 152.566406 149.976562 152.539062 150.210938 152.554688 C 150.441406 152.570312 150.660156 152.632812 150.867188 152.738281 C 151.078125 152.84375 151.257812 152.984375 151.410156 153.160156 C 151.5625 153.335938 151.671875 153.535156 151.746094 153.757812 C 151.816406 153.980469 151.847656 154.207031 151.828125 154.4375 C 151.226562 162.558594 151.027344 167.457031 150.886719 173.175781 C 150.882812 173.402344 150.832031 173.625 150.742188 173.832031 C 150.648438 174.042969 150.523438 174.230469 150.359375 174.390625 C 150.195312 174.550781 150.007812 174.671875 149.792969 174.757812 C 149.582031 174.84375 149.363281 174.886719 149.132812 174.886719 Z M 149.132812 174.886719 " fill-opacity="1" fill-rule="nonzero"/><path fill="#8c52ff" d="M 158.5625 156.652344 C 158.527344 156.652344 158.492188 156.652344 158.457031 156.648438 C 156.65625 156.542969 154.589844 156.359375 152.4375 156.171875 C 148.585938 155.832031 144.601562 155.480469 141.304688 155.480469 C 141.070312 155.484375 140.84375 155.441406 140.625 155.355469 C 140.40625 155.265625 140.214844 155.140625 140.046875 154.976562 C 139.878906 154.808594 139.75 154.621094 139.660156 154.402344 C 139.570312 154.183594 139.523438 153.960938 139.523438 153.722656 C 139.523438 153.488281 139.570312 153.261719 139.660156 153.046875 C 139.75 152.828125 139.878906 152.636719 140.046875 152.472656 C 140.214844 152.308594 140.40625 152.179688 140.625 152.09375 C 140.84375 152.003906 141.070312 151.964844 141.304688 151.96875 C 144.757812 151.96875 148.816406 152.324219 152.746094 152.671875 C 154.863281 152.855469 156.894531 153.039062 158.660156 153.140625 C 158.890625 153.152344 159.105469 153.210938 159.3125 153.308594 C 159.515625 153.40625 159.695312 153.539062 159.851562 153.707031 C 160.003906 153.875 160.121094 154.066406 160.199219 154.28125 C 160.28125 154.496094 160.316406 154.714844 160.308594 154.945312 C 160.304688 155.171875 160.253906 155.390625 160.164062 155.601562 C 160.070312 155.808594 159.945312 155.992188 159.78125 156.152344 C 159.617188 156.3125 159.429688 156.433594 159.21875 156.519531 C 159.007812 156.605469 158.789062 156.652344 158.5625 156.652344 Z M 158.5625 156.652344 " fill-opacity="1" fill-rule="nonzero"/><path fill="#8c52ff" d="M 218.960938 218.40625 C 218.6875 218.40625 218.441406 218.320312 218.226562 218.144531 C 218.011719 217.972656 217.875 217.75 217.820312 217.480469 C 217.398438 215.515625 216.960938 213.261719 216.503906 210.910156 C 216.03125 208.488281 215.550781 206.007812 215.050781 203.648438 C 214.03125 206.09375 212.960938 208.421875 211.917969 210.691406 C 210.960938 212.777344 210.039062 214.785156 209.234375 216.726562 C 209.144531 216.964844 208.992188 217.148438 208.777344 217.28125 C 208.5625 217.414062 208.328125 217.46875 208.074219 217.445312 C 207.824219 217.429688 207.605469 217.339844 207.410156 217.179688 C 207.21875 217.023438 207.089844 216.820312 207.023438 216.578125 C 205.757812 211.871094 204.238281 206.847656 202.722656 202.328125 C 201.25 207.425781 199.359375 214.175781 199.097656 215.746094 C 199.074219 215.898438 199.019531 216.039062 198.9375 216.171875 C 198.855469 216.304688 198.75 216.414062 198.625 216.503906 C 198.5 216.59375 198.359375 216.65625 198.210938 216.691406 C 198.058594 216.726562 197.90625 216.734375 197.753906 216.707031 C 197.601562 216.683594 197.457031 216.628906 197.328125 216.546875 C 197.195312 216.464844 197.085938 216.359375 196.992188 216.234375 C 196.902344 216.105469 196.839844 215.96875 196.804688 215.816406 C 196.769531 215.664062 196.765625 215.511719 196.792969 215.359375 C 197.195312 212.917969 200.667969 200.972656 201.507812 198.144531 C 201.578125 197.902344 201.714844 197.703125 201.917969 197.546875 C 202.117188 197.394531 202.34375 197.3125 202.597656 197.304688 C 202.847656 197.304688 203.078125 197.375 203.285156 197.515625 C 203.496094 197.660156 203.640625 197.847656 203.730469 198.085938 C 205.308594 202.503906 206.960938 207.714844 208.398438 212.773438 C 208.847656 211.773438 209.316406 210.753906 209.792969 209.714844 C 211.316406 206.402344 212.886719 202.972656 214.265625 199.269531 C 214.355469 199.03125 214.511719 198.84375 214.726562 198.703125 C 214.941406 198.5625 215.175781 198.5 215.433594 198.511719 C 215.6875 198.527344 215.914062 198.617188 216.113281 198.785156 C 216.308594 198.949219 216.4375 199.15625 216.5 199.410156 C 217.3125 202.816406 218.066406 206.707031 218.800781 210.464844 C 219.253906 212.796875 219.691406 215.039062 220.109375 216.992188 C 220.140625 217.144531 220.144531 217.296875 220.113281 217.449219 C 220.085938 217.601562 220.03125 217.742188 219.945312 217.871094 C 219.863281 218.003906 219.753906 218.113281 219.628906 218.199219 C 219.5 218.289062 219.359375 218.347656 219.210938 218.382812 C 219.128906 218.398438 219.042969 218.40625 218.960938 218.40625 Z M 218.960938 218.40625 " fill-opacity="1" fill-rule="nonzero"/><path fill="#8c52ff" d="M 212.367188 168.949219 C 212.300781 168.949219 212.230469 168.945312 212.160156 168.9375 C 208.792969 168.539062 205.796875 168.667969 202.617188 168.808594 C 201.113281 168.871094 199.605469 168.9375 198.046875 168.949219 L 198.035156 168.949219 C 197.8125 168.949219 197.597656 168.90625 197.386719 168.824219 C 197.179688 168.742188 196.992188 168.621094 196.832031 168.46875 C 196.667969 168.3125 196.539062 168.132812 196.445312 167.929688 C 196.351562 167.726562 196.296875 167.511719 196.285156 167.289062 C 196.066406 163.328125 196.148438 157.480469 196.21875 152.316406 C 196.253906 150.023438 196.28125 147.871094 196.28125 146.113281 C 196.28125 145.890625 196.320312 145.675781 196.402344 145.472656 C 196.484375 145.265625 196.597656 145.082031 196.75 144.917969 C 196.898438 144.757812 197.074219 144.625 197.269531 144.53125 C 197.46875 144.433594 197.679688 144.375 197.898438 144.359375 C 202.539062 143.996094 207.074219 144.285156 211.46875 144.566406 L 212.765625 144.648438 C 213 144.664062 213.21875 144.722656 213.429688 144.824219 C 213.636719 144.925781 213.820312 145.066406 213.972656 145.238281 C 214.128906 145.414062 214.242188 145.613281 214.316406 145.832031 C 214.394531 146.054688 214.425781 146.28125 214.410156 146.511719 C 214.394531 146.742188 214.332031 146.964844 214.230469 147.171875 C 214.125 147.378906 213.988281 147.558594 213.8125 147.714844 C 213.640625 147.867188 213.441406 147.984375 213.222656 148.058594 C 213.003906 148.136719 212.78125 148.167969 212.546875 148.15625 L 211.242188 148.070312 C 207.429688 147.761719 203.609375 147.65625 199.785156 147.761719 C 199.773438 149.164062 199.75 150.730469 199.730469 152.367188 C 199.667969 156.765625 199.597656 161.671875 199.71875 165.402344 C 200.644531 165.375 201.554688 165.332031 202.464844 165.292969 C 205.644531 165.15625 208.921875 165.015625 212.570312 165.441406 C 212.792969 165.46875 213.003906 165.535156 213.199219 165.640625 C 213.394531 165.746094 213.566406 165.886719 213.710938 166.058594 C 213.855469 166.230469 213.960938 166.421875 214.03125 166.632812 C 214.101562 166.847656 214.128906 167.066406 214.117188 167.289062 C 214.105469 167.511719 214.050781 167.726562 213.957031 167.929688 C 213.863281 168.132812 213.734375 168.3125 213.570312 168.464844 C 213.40625 168.617188 213.222656 168.738281 213.015625 168.820312 C 212.808594 168.902344 212.589844 168.945312 212.367188 168.945312 Z M 212.367188 168.949219 " fill-opacity="1" fill-rule="nonzero"/><path fill="#8c52ff" d="M 211.785156 158.992188 C 211.753906 158.992188 211.726562 158.992188 211.695312 158.992188 C 205.597656 158.699219 202.132812 158.699219 197.746094 158.699219 C 197.507812 158.703125 197.28125 158.664062 197.066406 158.574219 C 196.847656 158.488281 196.652344 158.359375 196.488281 158.195312 C 196.320312 158.03125 196.191406 157.839844 196.097656 157.621094 C 196.007812 157.40625 195.964844 157.179688 195.964844 156.945312 C 195.964844 156.707031 196.007812 156.484375 196.097656 156.265625 C 196.191406 156.046875 196.320312 155.859375 196.488281 155.691406 C 196.652344 155.527344 196.847656 155.402344 197.066406 155.3125 C 197.28125 155.226562 197.507812 155.183594 197.746094 155.1875 C 202.179688 155.1875 205.679688 155.1875 211.867188 155.484375 C 212.09375 155.492188 212.3125 155.546875 212.519531 155.644531 C 212.726562 155.738281 212.910156 155.871094 213.066406 156.039062 C 213.222656 156.207031 213.339844 156.398438 213.421875 156.613281 C 213.503906 156.828125 213.539062 157.046875 213.535156 157.277344 C 213.53125 157.507812 213.480469 157.726562 213.390625 157.9375 C 213.300781 158.144531 213.171875 158.332031 213.007812 158.492188 C 212.84375 158.652344 212.65625 158.777344 212.445312 158.863281 C 212.234375 158.949219 212.015625 158.992188 211.785156 158.992188 Z M 211.785156 158.992188 " fill-opacity="1" fill-rule="nonzero"/><path fill="#8c52ff" d="M 157.347656 224.78125 C 157.113281 224.78125 156.898438 224.714844 156.703125 224.585938 C 156.507812 224.457031 156.363281 224.285156 156.273438 224.066406 C 155.792969 222.933594 155.058594 220.839844 154.207031 218.410156 C 152.929688 214.769531 151.402344 210.417969 149.945312 206.960938 C 149.003906 209.382812 148.027344 212.246094 147.078125 215.039062 C 145.960938 218.304688 144.910156 221.386719 144.011719 223.472656 C 143.949219 223.617188 143.863281 223.742188 143.75 223.847656 C 143.640625 223.957031 143.511719 224.039062 143.367188 224.097656 C 143.222656 224.15625 143.074219 224.183594 142.917969 224.179688 C 142.765625 224.175781 142.617188 224.144531 142.472656 224.082031 C 142.332031 224.023438 142.207031 223.933594 142.097656 223.824219 C 141.988281 223.710938 141.90625 223.585938 141.851562 223.441406 C 141.792969 223.296875 141.765625 223.148438 141.765625 222.992188 C 141.769531 222.835938 141.800781 222.6875 141.863281 222.542969 C 142.726562 220.542969 143.761719 217.5 144.859375 214.28125 C 146.183594 210.40625 147.546875 206.402344 148.835938 203.527344 C 148.929688 203.320312 149.070312 203.152344 149.257812 203.027344 C 149.449219 202.902344 149.65625 202.839844 149.882812 202.835938 L 149.902344 202.835938 C 150.125 202.835938 150.332031 202.894531 150.523438 203.015625 C 150.714844 203.132812 150.855469 203.296875 150.953125 203.496094 C 152.769531 207.25 154.789062 213.007812 156.414062 217.636719 C 157.253906 220.023438 157.976562 222.085938 158.429688 223.15625 C 158.503906 223.335938 158.535156 223.523438 158.515625 223.71875 C 158.496094 223.914062 158.433594 224.09375 158.324219 224.257812 C 158.214844 224.421875 158.074219 224.550781 157.902344 224.640625 C 157.730469 224.734375 157.546875 224.78125 157.351562 224.78125 Z M 157.347656 224.78125 " fill-opacity="1" fill-rule="nonzero"/><path fill="#8c52ff" d="M 157.589844 217.445312 C 155.75 217.445312 153.847656 217.433594 151.972656 217.417969 C 148.3125 217.390625 144.851562 217.363281 142.25 217.445312 L 142.214844 217.445312 C 142.0625 217.445312 141.914062 217.417969 141.769531 217.359375 C 141.625 217.304688 141.5 217.21875 141.390625 217.113281 C 141.28125 217.003906 141.195312 216.878906 141.132812 216.738281 C 141.074219 216.597656 141.042969 216.449219 141.039062 216.292969 C 141.035156 216.140625 141.0625 215.992188 141.121094 215.847656 C 141.175781 215.703125 141.257812 215.574219 141.363281 215.464844 C 141.472656 215.351562 141.59375 215.265625 141.734375 215.203125 C 141.875 215.140625 142.023438 215.109375 142.179688 215.105469 C 144.820312 215.023438 148.304688 215.050781 151.992188 215.078125 C 153.855469 215.089844 155.757812 215.105469 157.589844 215.105469 C 157.746094 215.101562 157.898438 215.128906 158.042969 215.1875 C 158.1875 215.246094 158.316406 215.328125 158.429688 215.4375 C 158.542969 215.550781 158.628906 215.675781 158.6875 215.820312 C 158.75 215.96875 158.78125 216.117188 158.78125 216.273438 C 158.78125 216.433594 158.75 216.582031 158.6875 216.730469 C 158.628906 216.875 158.542969 217 158.429688 217.109375 C 158.316406 217.222656 158.1875 217.304688 158.042969 217.363281 C 157.898438 217.421875 157.746094 217.449219 157.589844 217.445312 Z M 157.589844 217.445312 " fill-opacity="1" fill-rule="nonzero"/></svg>