<?xml version="1.0" standalone="no"?>
<!DOCTYPE svg PUBLIC "-//W3C//DTD SVG 20010904//EN"
 "http://www.w3.org/TR/2001/REC-SVG-20010904/DTD/svg10.dtd">
<svg version="1.0" xmlns="http://www.w3.org/2000/svg"
 width="250.000000pt" height="250.000000pt" viewBox="0 0 250.000000 250.000000"
 preserveAspectRatio="xMidYMid meet">

<g transform="translate(0.000000,250.000000) scale(0.100000,-0.100000)"
fill="#000000" stroke="none">
<path d="M2165 1760 c-3 -6 5 -14 18 -19 14 -6 28 -15 32 -20 9 -15 25 -14 25
2 0 7 -13 20 -29 30 -34 20 -38 20 -46 7z"/>
<path d="M2280 1745 c0 -11 44 -65 52 -65 14 0 8 24 -11 48 -18 20 -41 30 -41
17z"/>
<path d="M2060 1731 c0 -11 69 -25 78 -16 10 10 -20 25 -50 25 -16 0 -28 -4
-28 -9z"/>
<path d="M1965 1689 c-4 -6 -5 -12 -3 -14 7 -8 78 7 78 16 0 13 -68 11 -75 -2z"/>
<path d="M2390 1689 c0 -6 8 -23 18 -37 10 -15 22 -35 25 -44 7 -20 27 -24 27
-6 0 17 -50 98 -60 98 -6 0 -10 -5 -10 -11z"/>
<path d="M438 1652 c-13 -16 -41 -80 -62 -143 -24 -69 -50 -127 -68 -147 -49
-57 -71 -112 -76 -189 -4 -69 -7 -74 -47 -116 -23 -25 -58 -50 -77 -56 -57
-19 -98 -76 -98 -137 0 -39 15 -28 28 22 13 49 53 94 83 94 16 0 19 -8 19 -42
0 -35 6 -47 38 -77 46 -44 97 -61 185 -61 36 0 69 -4 72 -10 12 -19 25 -10 25
18 1 31 14 52 50 75 28 18 325 117 352 117 19 0 32 16 24 29 -8 13 -136 -25
-331 -99 -58 -23 -107 -60 -117 -90 -4 -12 -22 -15 -79 -15 -120 1 -199 50
-199 125 0 37 32 91 66 113 22 14 34 30 34 45 0 19 3 21 19 12 32 -17 38 10 8
32 -18 13 -27 29 -27 47 0 36 46 126 76 150 17 13 33 49 54 117 33 105 61 169
76 169 5 0 10 -34 12 -75 l3 -75 -31 -12 c-16 -6 -30 -18 -30 -27 0 -18 25
-22 35 -6 3 6 17 10 31 10 24 0 24 1 25 93 l0 92 38 -95 37 -95 55 -6 c30 -3
68 -9 85 -13 31 -7 32 -6 70 69 42 84 68 115 85 98 11 -11 38 -150 39 -200 0
-17 5 -35 10 -38 20 -12 23 29 9 127 -15 96 -14 98 3 76 21 -27 45 -104 53
-171 9 -65 31 -57 28 10 l-2 49 67 26 c127 49 188 62 442 93 132 17 220 19
270 6 19 -5 47 -12 63 -15 25 -6 27 -10 27 -52 0 -52 16 -88 57 -125 58 -54
108 -62 178 -30 76 35 114 99 95 157 -21 62 -93 86 -124 42 -9 -12 -16 -26
-16 -30 0 -14 28 -8 34 7 7 20 40 19 60 -1 9 -8 16 -31 16 -51 0 -67 -100
-130 -172 -108 -56 17 -114 105 -103 155 4 16 16 41 27 55 16 20 18 29 9 38
-9 9 -14 9 -21 -3 -25 -40 -24 -40 -75 -24 -100 31 -427 9 -635 -42 -73 -18
-192 -63 -201 -76 -3 -4 -13 15 -24 43 -40 114 -115 153 -169 88 -14 -17 -38
-57 -53 -90 -23 -50 -31 -59 -48 -54 -11 3 -43 8 -72 12 l-52 6 -17 51 c-9 28
-27 75 -40 104 -20 46 -26 52 -53 52 -20 0 -37 -9 -53 -28z"/>
<path d="M2454 1480 c18 -133 -51 -207 -206 -223 -45 -4 -47 -3 -53 24 -4 17
-13 29 -22 29 -11 0 -14 -6 -9 -22 29 -98 30 -129 11 -196 -10 -37 -19 -92
-21 -123 -1 -31 -5 -62 -9 -69 -5 -8 -1 -11 11 -8 16 3 20 16 25 73 3 39 11
83 18 98 6 16 11 61 11 101 l0 73 30 -5 c69 -10 180 41 214 99 31 52 34 199 5
199 -8 0 -9 -16 -5 -50z"/>
<path d="M299 1244 c-17 -21 0 -49 32 -49 27 0 37 28 19 50 -16 19 -34 19 -51
-1z"/>
<path d="M1020 1248 c-1 -1 -2 -32 -2 -67 -2 -66 15 -96 27 -48 10 37 1 110
-12 115 -7 2 -13 2 -13 0z"/>
<path d="M1604 1206 c-12 -32 19 -101 67 -150 27 -27 48 -50 47 -51 -2 -1 -40
-14 -85 -29 -86 -29 -143 -75 -143 -116 0 -29 18 -25 26 5 12 49 98 93 218
112 27 5 51 14 53 20 3 7 -13 21 -34 32 -67 34 -123 112 -123 171 0 23 -18 27
-26 6z"/>
<path d="M478 1199 c-37 -21 -7 -66 36 -55 30 7 40 31 20 51 -18 17 -32 19
-56 4z"/>
<path d="M450 1076 c0 -9 15 -15 43 -18 49 -5 52 -4 44 17 -8 20 -87 21 -87 1z"/>
<path d="M252 1058 c-15 -15 -16 -64 -2 -73 6 -3 10 -31 10 -61 0 -30 5 -54
10 -54 6 0 10 20 10 45 0 39 3 47 24 55 33 12 50 44 37 69 -17 31 -66 42 -89
19z"/>
<path d="M2010 865 c-122 -28 -207 -43 -297 -51 -40 -4 -73 -11 -73 -15 0 -21
204 -1 380 37 85 19 113 31 105 45 -7 11 2 12 -115 -16z"/>
<path d="M87 858 c-7 -25 0 -41 14 -33 12 8 12 55 0 55 -5 0 -11 -10 -14 -22z"/>
<path d="M1554 845 c-9 -14 -14 -29 -10 -32 7 -7 56 36 56 49 0 18 -31 7 -46
-17z"/>
<path d="M1350 834 c-70 -14 -251 -21 -390 -15 -65 3 -94 -1 -125 -14 -22 -10
-64 -21 -93 -24 -29 -3 -52 -10 -52 -16 1 -15 91 -7 153 14 49 17 75 19 204
14 143 -6 244 2 361 27 28 7 52 16 52 21 0 12 -29 10 -110 -7z"/>
<path d="M527 824 c-10 -10 -9 -54 2 -54 12 0 22 43 13 52 -5 5 -11 5 -15 2z"/>
<path d="M608 795 c-5 -25 3 -40 16 -28 9 10 7 53 -3 53 -5 0 -11 -11 -13 -25z"/>
</g>
</svg>
