<?xml version="1.0" encoding="UTF-8"?>
<svg xmlns="http://www.w3.org/2000/svg" xmlns:xlink="http://www.w3.org/1999/xlink" width="333px" height="120px" viewBox="0 0 120 120" version="1.1">
<g id="surface1">
<path style=" stroke:none;fill-rule:nonzero;fill:rgb(0%,0%,0%);fill-opacity:1;" d="M 103.753906 35.464844 C 103.609375 35.75 103.992188 36.132812 104.617188 36.375 C 105.289062 36.660156 105.957031 37.09375 106.148438 37.332031 C 106.582031 38.050781 107.347656 38.003906 107.347656 37.238281 C 107.347656 36.902344 106.726562 36.277344 105.957031 35.796875 C 104.328125 34.839844 104.136719 34.839844 103.753906 35.464844 Z M 103.753906 35.464844 "/>
<path style=" stroke:none;fill-rule:nonzero;fill:rgb(0%,0%,0%);fill-opacity:1;" d="M 109.265625 36.183594 C 109.265625 36.710938 111.375 39.296875 111.757812 39.296875 C 112.429688 39.296875 112.140625 38.148438 111.230469 36.996094 C 110.367188 36.039062 109.265625 35.558594 109.265625 36.183594 Z M 109.265625 36.183594 "/>
<path style=" stroke:none;fill-rule:nonzero;fill:rgb(0%,0%,0%);fill-opacity:1;" d="M 98.722656 36.851562 C 98.722656 37.378906 102.027344 38.050781 102.460938 37.621094 C 102.9375 37.140625 101.5 36.421875 100.0625 36.421875 C 99.296875 36.421875 98.722656 36.613281 98.722656 36.851562 Z M 98.722656 36.851562 "/>
<path style=" stroke:none;fill-rule:nonzero;fill:rgb(0%,0%,0%);fill-opacity:1;" d="M 94.167969 38.867188 C 93.976562 39.152344 93.929688 39.441406 94.027344 39.535156 C 94.359375 39.921875 97.761719 39.203125 97.761719 38.769531 C 97.761719 38.148438 94.503906 38.242188 94.167969 38.867188 Z M 94.167969 38.867188 "/>
<path style=" stroke:none;fill-rule:nonzero;fill:rgb(0%,0%,0%);fill-opacity:1;" d="M 114.535156 38.867188 C 114.535156 39.152344 114.921875 39.96875 115.398438 40.640625 C 115.878906 41.359375 116.453125 42.316406 116.597656 42.746094 C 116.933594 43.707031 117.890625 43.898438 117.890625 43.035156 C 117.890625 42.21875 115.496094 38.339844 115.015625 38.339844 C 114.726562 38.339844 114.535156 38.578125 114.535156 38.867188 Z M 114.535156 38.867188 "/>
<path style=" stroke:none;fill-rule:nonzero;fill:rgb(0%,0%,0%);fill-opacity:1;" d="M 20.992188 40.640625 C 20.367188 41.40625 19.027344 44.472656 18.019531 47.492188 C 16.867188 50.796875 15.621094 53.578125 14.761719 54.535156 C 12.414062 57.269531 11.359375 59.902344 11.117188 63.59375 C 10.925781 66.902344 10.78125 67.140625 8.867188 69.152344 C 7.761719 70.351562 6.085938 71.550781 5.175781 71.835938 C 2.445312 72.746094 0.480469 75.480469 0.480469 78.402344 C 0.480469 80.273438 1.199219 79.746094 1.820312 77.347656 C 2.445312 75 4.359375 72.84375 5.796875 72.84375 C 6.566406 72.84375 6.710938 73.226562 6.710938 74.855469 C 6.710938 76.535156 6.996094 77.109375 8.53125 78.546875 C 10.734375 80.65625 13.179688 81.46875 17.394531 81.46875 C 19.121094 81.46875 20.703125 81.660156 20.847656 81.949219 C 21.421875 82.859375 22.042969 82.429688 22.042969 81.085938 C 22.09375 79.601562 22.714844 78.59375 24.441406 77.492188 C 25.78125 76.628906 40.015625 71.886719 41.308594 71.886719 C 42.21875 71.886719 42.84375 71.117188 42.460938 70.496094 C 42.078125 69.871094 35.941406 71.691406 26.597656 75.238281 C 23.816406 76.34375 21.46875 78.113281 20.992188 79.550781 C 20.796875 80.128906 19.9375 80.273438 17.203125 80.273438 C 11.453125 80.222656 7.667969 77.875 7.667969 74.28125 C 7.667969 72.507812 9.203125 69.921875 10.832031 68.867188 C 11.886719 68.195312 12.460938 67.429688 12.460938 66.710938 C 12.460938 65.796875 12.605469 65.703125 13.371094 66.132812 C 14.902344 66.949219 15.191406 65.65625 13.753906 64.601562 C 12.890625 63.976562 12.460938 63.210938 12.460938 62.347656 C 12.460938 60.621094 14.664062 56.308594 16.101562 55.160156 C 16.917969 54.535156 17.683594 52.8125 18.691406 49.550781 C 20.273438 44.519531 21.613281 41.453125 22.332031 41.453125 C 22.570312 41.453125 22.8125 43.082031 22.90625 45.046875 L 23.050781 48.640625 L 21.566406 49.21875 C 20.796875 49.503906 20.128906 50.078125 20.128906 50.511719 C 20.128906 51.375 21.324219 51.566406 21.804688 50.796875 C 21.949219 50.511719 22.621094 50.320312 23.289062 50.320312 C 24.441406 50.320312 24.441406 50.273438 24.488281 45.863281 L 24.488281 41.453125 L 26.308594 46.007812 L 28.082031 50.558594 L 30.71875 50.847656 C 32.15625 50.992188 33.976562 51.277344 34.792969 51.46875 C 36.277344 51.804688 36.324219 51.757812 38.148438 48.164062 C 40.160156 44.136719 41.40625 42.652344 42.21875 43.464844 C 42.746094 43.992188 44.042969 50.65625 44.089844 53.050781 C 44.089844 53.867188 44.328125 54.726562 44.570312 54.871094 C 45.527344 55.449219 45.671875 53.484375 45 48.785156 C 44.28125 44.183594 44.328125 44.089844 45.144531 45.144531 C 46.148438 46.4375 47.300781 50.128906 47.683594 53.339844 C 48.113281 56.453125 49.167969 56.070312 49.027344 52.859375 L 48.929688 50.511719 L 52.140625 49.265625 C 58.226562 46.917969 61.148438 46.292969 73.324219 44.808594 C 79.648438 43.992188 83.867188 43.898438 86.261719 44.519531 C 87.171875 44.761719 88.515625 45.097656 89.28125 45.238281 C 90.480469 45.527344 90.574219 45.71875 90.574219 47.730469 C 90.574219 50.222656 91.34375 51.949219 93.308594 53.722656 C 96.085938 56.308594 98.484375 56.691406 101.835938 55.160156 C 105.480469 53.484375 107.300781 50.414062 106.390625 47.636719 C 105.382812 44.664062 101.933594 43.515625 100.449219 45.621094 C 100.015625 46.199219 99.679688 46.867188 99.679688 47.0625 C 99.679688 47.730469 101.023438 47.445312 101.308594 46.726562 C 101.644531 45.765625 103.226562 45.816406 104.183594 46.773438 C 104.617188 47.15625 104.953125 48.257812 104.953125 49.21875 C 104.953125 52.429688 100.160156 55.449219 96.710938 54.394531 C 94.027344 53.578125 91.246094 49.359375 91.773438 46.964844 C 91.964844 46.199219 92.539062 45 93.066406 44.328125 C 93.832031 43.371094 93.929688 42.9375 93.5 42.507812 C 93.066406 42.078125 92.828125 42.078125 92.492188 42.652344 C 91.292969 44.570312 91.34375 44.570312 88.898438 43.800781 C 84.105469 42.316406 68.433594 43.371094 58.464844 45.816406 C 54.96875 46.675781 49.265625 48.832031 48.832031 49.457031 C 48.691406 49.648438 48.210938 48.738281 47.683594 47.394531 C 45.765625 41.933594 42.171875 40.0625 39.585938 43.179688 C 38.914062 43.992188 37.761719 45.910156 37.042969 47.492188 C 35.941406 49.886719 35.558594 50.320312 34.746094 50.078125 C 34.21875 49.9375 32.683594 49.695312 31.292969 49.503906 L 28.800781 49.21875 L 27.988281 46.773438 C 27.554688 45.429688 26.691406 43.179688 26.070312 41.789062 C 25.113281 39.585938 24.824219 39.296875 23.53125 39.296875 C 22.570312 39.296875 21.757812 39.726562 20.992188 40.640625 Z M 20.992188 40.640625 "/>
<path style=" stroke:none;fill-rule:nonzero;fill:rgb(0%,0%,0%);fill-opacity:1;" d="M 117.605469 48.882812 C 118.464844 55.253906 115.160156 58.800781 107.730469 59.570312 C 105.574219 59.761719 105.480469 59.710938 105.191406 58.417969 C 105 57.605469 104.570312 57.027344 104.136719 57.027344 C 103.609375 57.027344 103.464844 57.316406 103.707031 58.082031 C 105.097656 62.78125 105.144531 64.265625 104.234375 67.476562 C 103.753906 69.25 103.324219 71.886719 103.226562 73.371094 C 103.179688 74.855469 102.988281 76.34375 102.796875 76.675781 C 102.554688 77.0625 102.746094 77.203125 103.324219 77.0625 C 104.089844 76.917969 104.28125 76.292969 104.519531 73.5625 C 104.664062 71.691406 105.046875 69.585938 105.382812 68.867188 C 105.671875 68.097656 105.910156 65.941406 105.910156 64.027344 L 105.910156 60.527344 L 107.347656 60.765625 C 110.65625 61.246094 115.972656 58.800781 117.605469 56.023438 C 119.089844 53.53125 119.234375 46.484375 117.84375 46.484375 C 117.460938 46.484375 117.414062 47.253906 117.605469 48.882812 Z M 117.605469 48.882812 "/>
<path style=" stroke:none;fill-rule:nonzero;fill:rgb(0%,0%,0%);fill-opacity:1;" d="M 14.328125 60.191406 C 13.515625 61.199219 14.328125 62.539062 15.863281 62.539062 C 17.15625 62.539062 17.636719 61.199219 16.773438 60.144531 C 16.007812 59.234375 15.144531 59.234375 14.328125 60.191406 Z M 14.328125 60.191406 "/>
<path style=" stroke:none;fill-rule:nonzero;fill:rgb(0%,0%,0%);fill-opacity:1;" d="M 48.882812 60 C 48.832031 60.046875 48.785156 61.535156 48.785156 63.210938 C 48.691406 66.375 49.503906 67.8125 50.078125 65.511719 C 50.558594 63.738281 50.128906 60.238281 49.503906 60 C 49.167969 59.902344 48.882812 59.902344 48.882812 60 Z M 48.882812 60 "/>
<path style=" stroke:none;fill-rule:nonzero;fill:rgb(0%,0%,0%);fill-opacity:1;" d="M 76.867188 62.011719 C 76.292969 63.546875 77.78125 66.851562 80.078125 69.203125 C 81.375 70.496094 82.378906 71.597656 82.332031 71.644531 C 82.238281 71.691406 80.414062 72.316406 78.257812 73.035156 C 74.136719 74.425781 71.40625 76.628906 71.40625 78.59375 C 71.40625 79.984375 72.269531 79.792969 72.652344 78.355469 C 73.226562 76.007812 77.347656 73.898438 83.097656 72.988281 C 84.394531 72.746094 85.542969 72.316406 85.640625 72.027344 C 85.78125 71.691406 85.015625 71.023438 84.007812 70.496094 C 80.796875 68.867188 78.113281 65.128906 78.113281 62.300781 C 78.113281 61.199219 77.253906 61.007812 76.867188 62.011719 Z M 76.867188 62.011719 "/>
<path style=" stroke:none;fill-rule:nonzero;fill:rgb(0%,0%,0%);fill-opacity:1;" d="M 22.90625 62.347656 C 21.132812 63.355469 22.570312 65.511719 24.632812 64.984375 C 26.070312 64.648438 26.550781 63.5 25.589844 62.539062 C 24.726562 61.726562 24.058594 61.628906 22.90625 62.347656 Z M 22.90625 62.347656 "/>
<path style=" stroke:none;fill-rule:nonzero;fill:rgb(0%,0%,0%);fill-opacity:1;" d="M 21.566406 68.242188 C 21.566406 68.675781 22.285156 68.960938 23.625 69.105469 C 25.972656 69.34375 26.117188 69.296875 25.734375 68.289062 C 25.351562 67.332031 21.566406 67.285156 21.566406 68.242188 Z M 21.566406 68.242188 "/>
<path style=" stroke:none;fill-rule:nonzero;fill:rgb(0%,0%,0%);fill-opacity:1;" d="M 12.078125 69.105469 C 11.359375 69.824219 11.308594 72.171875 11.980469 72.605469 C 12.269531 72.746094 12.460938 74.089844 12.460938 75.527344 C 12.460938 76.964844 12.699219 78.113281 12.9375 78.113281 C 13.226562 78.113281 13.417969 77.15625 13.417969 75.957031 C 13.417969 74.089844 13.5625 73.707031 14.570312 73.324219 C 16.148438 72.746094 16.964844 71.214844 16.34375 70.015625 C 15.527344 68.53125 13.179688 68.003906 12.078125 69.105469 Z M 12.078125 69.105469 "/>
<path style=" stroke:none;fill-rule:nonzero;fill:rgb(0%,0%,0%);fill-opacity:1;" d="M 96.324219 78.355469 C 90.480469 79.695312 86.40625 80.414062 82.09375 80.796875 C 80.175781 80.992188 78.59375 81.324219 78.59375 81.515625 C 78.59375 82.523438 88.371094 81.566406 96.804688 79.746094 C 100.878906 78.832031 102.21875 78.257812 101.835938 77.585938 C 101.5 77.0625 101.933594 77.011719 96.324219 78.355469 Z M 96.324219 78.355469 "/>
<path style=" stroke:none;fill-rule:nonzero;fill:rgb(0%,0%,0%);fill-opacity:1;" d="M 4.167969 78.691406 C 3.832031 79.886719 4.167969 80.65625 4.839844 80.273438 C 5.414062 79.886719 5.414062 77.636719 4.839844 77.636719 C 4.601562 77.636719 4.3125 78.113281 4.167969 78.691406 Z M 4.167969 78.691406 "/>
<path style=" stroke:none;fill-rule:nonzero;fill:rgb(0%,0%,0%);fill-opacity:1;" d="M 74.472656 79.3125 C 74.042969 79.984375 73.800781 80.703125 73.992188 80.847656 C 74.328125 81.183594 76.675781 79.121094 76.675781 78.5 C 76.675781 77.636719 75.191406 78.164062 74.472656 79.3125 Z M 74.472656 79.3125 "/>
<path style=" stroke:none;fill-rule:nonzero;fill:rgb(0%,0%,0%);fill-opacity:1;" d="M 64.695312 79.839844 C 61.34375 80.511719 52.667969 80.847656 46.007812 80.558594 C 42.890625 80.414062 41.5 80.605469 40.015625 81.230469 C 38.960938 81.710938 36.949219 82.238281 35.558594 82.378906 C 34.167969 82.523438 33.066406 82.859375 33.066406 83.148438 C 33.113281 83.867188 37.429688 83.484375 40.398438 82.476562 C 42.746094 81.660156 43.992188 81.566406 50.175781 81.804688 C 57.027344 82.09375 61.867188 81.710938 67.476562 80.511719 C 68.816406 80.175781 69.96875 79.746094 69.96875 79.503906 C 69.96875 78.929688 68.578125 79.027344 64.695312 79.839844 Z M 64.695312 79.839844 "/>
<path style=" stroke:none;fill-rule:nonzero;fill:rgb(0%,0%,0%);fill-opacity:1;" d="M 25.253906 80.320312 C 24.777344 80.796875 24.824219 82.90625 25.351562 82.90625 C 25.925781 82.90625 26.40625 80.847656 25.972656 80.414062 C 25.734375 80.175781 25.449219 80.175781 25.253906 80.320312 Z M 25.253906 80.320312 "/>
<path style=" stroke:none;fill-rule:nonzero;fill:rgb(0%,0%,0%);fill-opacity:1;" d="M 29.136719 81.710938 C 28.898438 82.90625 29.28125 83.625 29.902344 83.050781 C 30.335938 82.570312 30.238281 80.511719 29.761719 80.511719 C 29.519531 80.511719 29.234375 81.039062 29.136719 81.710938 Z M 29.136719 81.710938 "/>
</g>
</svg>
